solid OpenSCAD_Model
  facet normal 0 0 -1
    outer loop
      vertex -12 0 0
      vertex -11.8655 1.36563 0
      vertex -11.8655 -1.36563 0
    endloop
  endfacet
  facet normal 0 0 -1
    outer loop
      vertex -11.8655 -1.36563 0
      vertex -11.8655 1.36563 0
      vertex -11.4672 2.67878 0
    endloop
  endfacet
  facet normal 0 0 -1
    outer loop
      vertex -11.8655 -1.36563 0
      vertex -11.4672 2.67878 0
      vertex -10.8203 3.88899 0
    endloop
  endfacet
  facet normal 0 0 -1
    outer loop
      vertex -11.8655 -1.36563 0
      vertex -10.8203 3.88899 0
      vertex -9.94975 4.94975 0
    endloop
  endfacet
  facet normal 0 0 -1
    outer loop
      vertex -11.8655 -1.36563 0
      vertex -9.94975 4.94975 0
      vertex -8.88899 5.82029 0
    endloop
  endfacet
  facet normal 0 0 -1
    outer loop
      vertex -11.8655 -1.36563 0
      vertex -8.88899 5.82029 0
      vertex -7.67878 6.46716 0
    endloop
  endfacet
  facet normal 0 0 -1
    outer loop
      vertex -9.15735 2.77785 0
      vertex -7.67878 6.46716 0
      vertex -6.36563 6.8655 0
    endloop
  endfacet
  facet normal 0 0 -1
    outer loop
      vertex -7.77785 4.15735 0
      vertex -6.36563 6.8655 0
      vertex -5 7 0
    endloop
  endfacet
  facet normal 0 0 -1
    outer loop
      vertex -5.97545 4.90393 0
      vertex -5 7 0
      vertex -5 5 0
    endloop
  endfacet
  facet normal 0 0 -1
    outer loop
      vertex -6.91342 4.6194 0
      vertex -5 7 0
      vertex -5.97545 4.90393 0
    endloop
  endfacet
  facet normal 0 0 -1
    outer loop
      vertex -8.53553 3.53553 0
      vertex -6.36563 6.8655 0
      vertex -7.77785 4.15735 0
    endloop
  endfacet
  facet normal 0 0 -1
    outer loop
      vertex -9.15735 2.77785 0
      vertex -6.36563 6.8655 0
      vertex -8.53553 3.53553 0
    endloop
  endfacet
  facet normal 0 0 -1
    outer loop
      vertex -11.8655 -1.36563 0
      vertex -7.67878 6.46716 0
      vertex -9.15735 2.77785 0
    endloop
  endfacet
  facet normal 0 0 -1
    outer loop
      vertex -9.6194 1.91342 0
      vertex -11.8655 -1.36563 0
      vertex -9.15735 2.77785 0
    endloop
  endfacet
  facet normal 0 0 -1
    outer loop
      vertex -9.90393 0.975451 0
      vertex -11.8655 -1.36563 0
      vertex -9.6194 1.91342 0
    endloop
  endfacet
  facet normal 0 0 -1
    outer loop
      vertex -10 0 0
      vertex -11.8655 -1.36563 0
      vertex -9.90393 0.975451 0
    endloop
  endfacet
  facet normal 0 0 -1
    outer loop
      vertex -11.8655 -1.36563 0
      vertex -10 0 0
      vertex -9.90393 -0.975451 0
    endloop
  endfacet
  facet normal 0 0 -1
    outer loop
      vertex -9.90393 -0.975451 0
      vertex -9.6194 -1.91342 0
      vertex -11.8655 -1.36563 0
    endloop
  endfacet
  facet normal 0 0 -1
    outer loop
      vertex -9.6194 -1.91342 0
      vertex -9.15735 -2.77785 0
      vertex -11.8655 -1.36563 0
    endloop
  endfacet
  facet normal 0 0 -1
    outer loop
      vertex -9.15735 -2.77785 0
      vertex -8.53553 -3.53553 0
      vertex -11.8655 -1.36563 0
    endloop
  endfacet
  facet normal 0 0 -1
    outer loop
      vertex -8.53553 -3.53553 0
      vertex -7.77785 -4.15735 0
      vertex -11.8655 -1.36563 0
    endloop
  endfacet
  facet normal 0 0 -1
    outer loop
      vertex -0.842652 -2.77785 0
      vertex 2 0 0
      vertex -1.46447 -3.53553 0
    endloop
  endfacet
  facet normal 0 0 -1
    outer loop
      vertex -0.380602 -1.91342 0
      vertex 2 0 0
      vertex -0.842652 -2.77785 0
    endloop
  endfacet
  facet normal 0 0 -1
    outer loop
      vertex 0 0 0
      vertex 0 15 0
      vertex 2 15 0
    endloop
  endfacet
  facet normal 0 0 -1
    outer loop
      vertex 0 0 0
      vertex 2 15 0
      vertex -0.0960732 -0.975451 0
    endloop
  endfacet
  facet normal 0 0 -1
    outer loop
      vertex -0.0960732 -0.975451 0
      vertex 2 15 0
      vertex 2 0 0
    endloop
  endfacet
  facet normal 0 0 -1
    outer loop
      vertex -0.0960732 -0.975451 0
      vertex 2 0 0
      vertex -0.380602 -1.91342 0
    endloop
  endfacet
  facet normal 0 0 -1
    outer loop
      vertex -1.46447 -3.53553 0
      vertex 2 0 0
      vertex 1.8655 -1.36563 0
    endloop
  endfacet
  facet normal 0 0 -1
    outer loop
      vertex -1.46447 -3.53553 0
      vertex 1.8655 -1.36563 0
      vertex -2.22215 -4.15735 0
    endloop
  endfacet
  facet normal 0 0 -1
    outer loop
      vertex -2.22215 -4.15735 0
      vertex 1.8655 -1.36563 0
      vertex 1.46716 -2.67878 0
    endloop
  endfacet
  facet normal 0 0 -1
    outer loop
      vertex -2.22215 -4.15735 0
      vertex 1.46716 -2.67878 0
      vertex -3.08658 -4.6194 0
    endloop
  endfacet
  facet normal 0 0 -1
    outer loop
      vertex -3.08658 -4.6194 0
      vertex 1.46716 -2.67878 0
      vertex 0.820288 -3.88899 0
    endloop
  endfacet
  facet normal 0 0 -1
    outer loop
      vertex -3.08658 -4.6194 0
      vertex 0.820288 -3.88899 0
      vertex -4.02455 -4.90393 0
    endloop
  endfacet
  facet normal 0 0 -1
    outer loop
      vertex -4.02455 -4.90393 0
      vertex 0.820288 -3.88899 0
      vertex -0.0502529 -4.94975 0
    endloop
  endfacet
  facet normal 0 0 -1
    outer loop
      vertex -4.02455 -4.90393 0
      vertex -0.0502529 -4.94975 0
      vertex -5 -5 0
    endloop
  endfacet
  facet normal 0 0 -1
    outer loop
      vertex -5 -5 0
      vertex -0.0502529 -4.94975 0
      vertex -1.11101 -5.82029 0
    endloop
  endfacet
  facet normal 0 0 -1
    outer loop
      vertex -5 -5 0
      vertex -1.11101 -5.82029 0
      vertex -5.97545 -4.90393 0
    endloop
  endfacet
  facet normal 0 0 -1
    outer loop
      vertex -5.97545 -4.90393 0
      vertex -1.11101 -5.82029 0
      vertex -2.32122 -6.46716 0
    endloop
  endfacet
  facet normal 0 0 -1
    outer loop
      vertex -5.97545 -4.90393 0
      vertex -2.32122 -6.46716 0
      vertex -6.91342 -4.6194 0
    endloop
  endfacet
  facet normal 0 0 -1
    outer loop
      vertex -6.91342 -4.6194 0
      vertex -2.32122 -6.46716 0
      vertex -3.63437 -6.8655 0
    endloop
  endfacet
  facet normal 0 0 -1
    outer loop
      vertex -6.91342 -4.6194 0
      vertex -3.63437 -6.8655 0
      vertex -7.77785 -4.15735 0
    endloop
  endfacet
  facet normal 0 0 -1
    outer loop
      vertex -7.77785 -4.15735 0
      vertex -3.63437 -6.8655 0
      vertex -5 -7 0
    endloop
  endfacet
  facet normal 0 0 -1
    outer loop
      vertex -7.77785 -4.15735 0
      vertex -5 -7 0
      vertex -11.8655 -1.36563 0
    endloop
  endfacet
  facet normal 0 0 -1
    outer loop
      vertex -11.8655 -1.36563 0
      vertex -5 -7 0
      vertex -6.36563 -6.8655 0
    endloop
  endfacet
  facet normal 0 0 -1
    outer loop
      vertex -11.8655 -1.36563 0
      vertex -6.36563 -6.8655 0
      vertex -7.67878 -6.46716 0
    endloop
  endfacet
  facet normal 0 0 -1
    outer loop
      vertex -11.8655 -1.36563 0
      vertex -7.67878 -6.46716 0
      vertex -8.88899 -5.82029 0
    endloop
  endfacet
  facet normal 0 0 -1
    outer loop
      vertex -11.8655 -1.36563 0
      vertex -8.88899 -5.82029 0
      vertex -9.94975 -4.94975 0
    endloop
  endfacet
  facet normal 0 0 -1
    outer loop
      vertex -11.8655 -1.36563 0
      vertex -9.94975 -4.94975 0
      vertex -10.8203 -3.88899 0
    endloop
  endfacet
  facet normal 0 0 -1
    outer loop
      vertex -11.8655 -1.36563 0
      vertex -10.8203 -3.88899 0
      vertex -11.4672 -2.67878 0
    endloop
  endfacet
  facet normal 0 0 -1
    outer loop
      vertex -7.77785 4.15735 0
      vertex -5 7 0
      vertex -6.91342 4.6194 0
    endloop
  endfacet
  facet normal -0.995185 0.0980174 0
    outer loop
      vertex -12 0 0
      vertex -12 0 5
      vertex -11.8655 1.36563 0
    endloop
  endfacet
  facet normal -0.995185 0.0980174 0
    outer loop
      vertex -11.8655 1.36563 0
      vertex -12 0 5
      vertex -11.8655 1.36563 5
    endloop
  endfacet
  facet normal -0.995185 -0.0980174 0
    outer loop
      vertex -12 0 0
      vertex -11.8655 -1.36563 0
      vertex -12 0 5
    endloop
  endfacet
  facet normal -0.995185 -0.0980174 0
    outer loop
      vertex -12 0 5
      vertex -11.8655 -1.36563 0
      vertex -11.8655 -1.36563 5
    endloop
  endfacet
  facet normal -0.95694 -0.290285 0
    outer loop
      vertex -11.8655 -1.36563 0
      vertex -11.4672 -2.67878 0
      vertex -11.8655 -1.36563 5
    endloop
  endfacet
  facet normal -0.95694 -0.290285 0
    outer loop
      vertex -11.8655 -1.36563 5
      vertex -11.4672 -2.67878 0
      vertex -11.4672 -2.67878 5
    endloop
  endfacet
  facet normal -0.881921 -0.471397 0
    outer loop
      vertex -11.4672 -2.67878 0
      vertex -10.8203 -3.88899 0
      vertex -11.4672 -2.67878 5
    endloop
  endfacet
  facet normal -0.881921 -0.471397 0
    outer loop
      vertex -11.4672 -2.67878 5
      vertex -10.8203 -3.88899 0
      vertex -10.8203 -3.88899 5
    endloop
  endfacet
  facet normal -0.77301 -0.634394 0
    outer loop
      vertex -10.8203 -3.88899 0
      vertex -9.94975 -4.94975 0
      vertex -10.8203 -3.88899 5
    endloop
  endfacet
  facet normal -0.77301 -0.634394 0
    outer loop
      vertex -10.8203 -3.88899 5
      vertex -9.94975 -4.94975 0
      vertex -9.94975 -4.94975 5
    endloop
  endfacet
  facet normal -0.634394 -0.77301 0
    outer loop
      vertex -9.94975 -4.94975 5
      vertex -9.94975 -4.94975 0
      vertex -8.88899 -5.82029 0
    endloop
  endfacet
  facet normal -0.634394 -0.77301 0
    outer loop
      vertex -8.88899 -5.82029 5
      vertex -9.94975 -4.94975 5
      vertex -8.88899 -5.82029 0
    endloop
  endfacet
  facet normal -0.471397 -0.881921 0
    outer loop
      vertex -8.88899 -5.82029 5
      vertex -8.88899 -5.82029 0
      vertex -7.67878 -6.46716 0
    endloop
  endfacet
  facet normal -0.471397 -0.881921 0
    outer loop
      vertex -7.67878 -6.46716 5
      vertex -8.88899 -5.82029 5
      vertex -7.67878 -6.46716 0
    endloop
  endfacet
  facet normal -0.290285 -0.95694 0
    outer loop
      vertex -7.67878 -6.46716 5
      vertex -7.67878 -6.46716 0
      vertex -6.36563 -6.8655 0
    endloop
  endfacet
  facet normal -0.290285 -0.95694 0
    outer loop
      vertex -6.36563 -6.8655 5
      vertex -7.67878 -6.46716 5
      vertex -6.36563 -6.8655 0
    endloop
  endfacet
  facet normal -0.0980174 -0.995185 0
    outer loop
      vertex -6.36563 -6.8655 5
      vertex -6.36563 -6.8655 0
      vertex -5 -7 0
    endloop
  endfacet
  facet normal -0.0980174 -0.995185 0
    outer loop
      vertex -5 -7 5
      vertex -6.36563 -6.8655 5
      vertex -5 -7 0
    endloop
  endfacet
  facet normal 0.0980174 -0.995185 0
    outer loop
      vertex -5 -7 5
      vertex -5 -7 0
      vertex -3.63437 -6.8655 0
    endloop
  endfacet
  facet normal 0.0980174 -0.995185 0
    outer loop
      vertex -3.63437 -6.8655 5
      vertex -5 -7 5
      vertex -3.63437 -6.8655 0
    endloop
  endfacet
  facet normal 0.290285 -0.95694 0
    outer loop
      vertex -3.63437 -6.8655 5
      vertex -3.63437 -6.8655 0
      vertex -2.32122 -6.46716 0
    endloop
  endfacet
  facet normal 0.290285 -0.95694 0
    outer loop
      vertex -2.32122 -6.46716 5
      vertex -3.63437 -6.8655 5
      vertex -2.32122 -6.46716 0
    endloop
  endfacet
  facet normal 0.471397 -0.881921 0
    outer loop
      vertex -2.32122 -6.46716 5
      vertex -2.32122 -6.46716 0
      vertex -1.11101 -5.82029 0
    endloop
  endfacet
  facet normal 0.471397 -0.881921 0
    outer loop
      vertex -1.11101 -5.82029 5
      vertex -2.32122 -6.46716 5
      vertex -1.11101 -5.82029 0
    endloop
  endfacet
  facet normal 0.634394 -0.77301 0
    outer loop
      vertex -1.11101 -5.82029 5
      vertex -1.11101 -5.82029 0
      vertex -0.0502529 -4.94975 0
    endloop
  endfacet
  facet normal 0.634394 -0.77301 0
    outer loop
      vertex -0.0502529 -4.94975 5
      vertex -1.11101 -5.82029 5
      vertex -0.0502529 -4.94975 0
    endloop
  endfacet
  facet normal 0.77301 -0.634394 0
    outer loop
      vertex -0.0502529 -4.94975 5
      vertex -0.0502529 -4.94975 0
      vertex 0.820288 -3.88899 0
    endloop
  endfacet
  facet normal 0.77301 -0.634394 0
    outer loop
      vertex 0.820288 -3.88899 5
      vertex -0.0502529 -4.94975 5
      vertex 0.820288 -3.88899 0
    endloop
  endfacet
  facet normal 0.881921 -0.471397 0
    outer loop
      vertex 0.820288 -3.88899 5
      vertex 0.820288 -3.88899 0
      vertex 1.46716 -2.67878 0
    endloop
  endfacet
  facet normal 0.881921 -0.471397 0
    outer loop
      vertex 1.46716 -2.67878 5
      vertex 0.820288 -3.88899 5
      vertex 1.46716 -2.67878 0
    endloop
  endfacet
  facet normal 0.95694 -0.290285 0
    outer loop
      vertex 1.46716 -2.67878 5
      vertex 1.46716 -2.67878 0
      vertex 1.8655 -1.36563 0
    endloop
  endfacet
  facet normal 0.95694 -0.290285 0
    outer loop
      vertex 1.8655 -1.36563 5
      vertex 1.46716 -2.67878 5
      vertex 1.8655 -1.36563 0
    endloop
  endfacet
  facet normal 0.995185 -0.0980174 0
    outer loop
      vertex 1.8655 -1.36563 5
      vertex 1.8655 -1.36563 0
      vertex 2 0 0
    endloop
  endfacet
  facet normal 0.995185 -0.0980174 0
    outer loop
      vertex 2 0 5
      vertex 1.8655 -1.36563 5
      vertex 2 0 0
    endloop
  endfacet
  facet normal 1 0 0
    outer loop
      vertex 2 0 5
      vertex 2 0 0
      vertex 2 15 0
    endloop
  endfacet
  facet normal 1 0 0
    outer loop
      vertex 2 11.6161 1.61612
      vertex 2 0 5
      vertex 2 15 0
    endloop
  endfacet
  facet normal 1 0 0
    outer loop
      vertex 2 12.5 1.25
      vertex 2 11.6161 1.61612
      vertex 2 15 0
    endloop
  endfacet
  facet normal 1 0 0
    outer loop
      vertex 2 11.25 2.5
      vertex 2 0 5
      vertex 2 11.6161 1.61612
    endloop
  endfacet
  facet normal 1 0 0
    outer loop
      vertex 2 11.6161 3.38388
      vertex 2 0 5
      vertex 2 11.25 2.5
    endloop
  endfacet
  facet normal 1 0 0
    outer loop
      vertex 2 15 5
      vertex 2 0 5
      vertex 2 11.6161 3.38388
    endloop
  endfacet
  facet normal 1 0 0
    outer loop
      vertex 2 15 5
      vertex 2 11.6161 3.38388
      vertex 2 12.5 3.75
    endloop
  endfacet
  facet normal 1 0 0
    outer loop
      vertex 2 15 5
      vertex 2 13.3839 3.38388
      vertex 2 15 0
    endloop
  endfacet
  facet normal 1 0 0
    outer loop
      vertex 2 13.3839 3.38388
      vertex 2 13.75 2.5
      vertex 2 15 0
    endloop
  endfacet
  facet normal 1 0 0
    outer loop
      vertex 2 13.75 2.5
      vertex 2 13.3839 1.61612
      vertex 2 15 0
    endloop
  endfacet
  facet normal 1 0 0
    outer loop
      vertex 2 13.3839 1.61612
      vertex 2 12.5 1.25
      vertex 2 15 0
    endloop
  endfacet
  facet normal 1 0 0
    outer loop
      vertex 2 12.5 3.75
      vertex 2 13.3839 3.38388
      vertex 2 15 5
    endloop
  endfacet
  facet normal 0 1 0
    outer loop
      vertex 0 15 0
      vertex 0 15 5
      vertex 2 15 0
    endloop
  endfacet
  facet normal 0 1 0
    outer loop
      vertex 2 15 0
      vertex 0 15 5
      vertex 2 15 5
    endloop
  endfacet
  facet normal -1 0 0
    outer loop
      vertex 0 0 0
      vertex 0 0 5
      vertex 0 15 0
    endloop
  endfacet
  facet normal -1 0 0
    outer loop
      vertex 0 12.5 3.75
      vertex 0 0 5
      vertex 0 15 5
    endloop
  endfacet
  facet normal -1 0 0
    outer loop
      vertex 0 11.6161 1.61612
      vertex 0 0 5
      vertex 0 11.25 2.5
    endloop
  endfacet
  facet normal -1 0 0
    outer loop
      vertex 0 15 0
      vertex 0 0 5
      vertex 0 11.6161 1.61612
    endloop
  endfacet
  facet normal -1 0 0
    outer loop
      vertex 0 15 0
      vertex 0 11.6161 1.61612
      vertex 0 12.5 1.25
    endloop
  endfacet
  facet normal -1 0 0
    outer loop
      vertex 0 12.5 3.75
      vertex 0 15 5
      vertex 0 13.3839 3.38388
    endloop
  endfacet
  facet normal -1 0 0
    outer loop
      vertex 0 15 0
      vertex 0 13.3839 1.61612
      vertex 0 15 5
    endloop
  endfacet
  facet normal -1 0 0
    outer loop
      vertex 0 13.3839 1.61612
      vertex 0 13.75 2.5
      vertex 0 15 5
    endloop
  endfacet
  facet normal -1 0 0
    outer loop
      vertex 0 13.75 2.5
      vertex 0 13.3839 3.38388
      vertex 0 15 5
    endloop
  endfacet
  facet normal -1 0 0
    outer loop
      vertex 0 11.6161 3.38388
      vertex 0 0 5
      vertex 0 12.5 3.75
    endloop
  endfacet
  facet normal -1 0 0
    outer loop
      vertex 0 11.25 2.5
      vertex 0 0 5
      vertex 0 11.6161 3.38388
    endloop
  endfacet
  facet normal -1 0 0
    outer loop
      vertex 0 13.3839 1.61612
      vertex 0 15 0
      vertex 0 12.5 1.25
    endloop
  endfacet
  facet normal -0.995185 0.0980167 0
    outer loop
      vertex 0 0 5
      vertex 0 0 0
      vertex -0.0960732 -0.975451 5
    endloop
  endfacet
  facet normal -0.995185 0.0980167 0
    outer loop
      vertex -0.0960732 -0.975451 5
      vertex 0 0 0
      vertex -0.0960732 -0.975451 0
    endloop
  endfacet
  facet normal -0.95694 0.290285 0
    outer loop
      vertex -0.0960732 -0.975451 5
      vertex -0.0960732 -0.975451 0
      vertex -0.380602 -1.91342 5
    endloop
  endfacet
  facet normal -0.95694 0.290285 0
    outer loop
      vertex -0.380602 -1.91342 5
      vertex -0.0960732 -0.975451 0
      vertex -0.380602 -1.91342 0
    endloop
  endfacet
  facet normal -0.881921 0.471397 0
    outer loop
      vertex -0.380602 -1.91342 5
      vertex -0.380602 -1.91342 0
      vertex -0.842652 -2.77785 5
    endloop
  endfacet
  facet normal -0.881921 0.471397 0
    outer loop
      vertex -0.842652 -2.77785 5
      vertex -0.380602 -1.91342 0
      vertex -0.842652 -2.77785 0
    endloop
  endfacet
  facet normal -0.773011 0.634393 0
    outer loop
      vertex -0.842652 -2.77785 5
      vertex -0.842652 -2.77785 0
      vertex -1.46447 -3.53553 5
    endloop
  endfacet
  facet normal -0.773011 0.634393 0
    outer loop
      vertex -1.46447 -3.53553 5
      vertex -0.842652 -2.77785 0
      vertex -1.46447 -3.53553 0
    endloop
  endfacet
  facet normal -0.634393 0.773011 0
    outer loop
      vertex -1.46447 -3.53553 5
      vertex -1.46447 -3.53553 0
      vertex -2.22215 -4.15735 5
    endloop
  endfacet
  facet normal -0.634393 0.773011 0
    outer loop
      vertex -2.22215 -4.15735 5
      vertex -1.46447 -3.53553 0
      vertex -2.22215 -4.15735 0
    endloop
  endfacet
  facet normal -0.471397 0.881921 0
    outer loop
      vertex -2.22215 -4.15735 5
      vertex -2.22215 -4.15735 0
      vertex -3.08658 -4.6194 5
    endloop
  endfacet
  facet normal -0.471397 0.881921 0
    outer loop
      vertex -3.08658 -4.6194 5
      vertex -2.22215 -4.15735 0
      vertex -3.08658 -4.6194 0
    endloop
  endfacet
  facet normal -0.290285 0.95694 0
    outer loop
      vertex -3.08658 -4.6194 5
      vertex -3.08658 -4.6194 0
      vertex -4.02455 -4.90393 5
    endloop
  endfacet
  facet normal -0.290285 0.95694 0
    outer loop
      vertex -4.02455 -4.90393 5
      vertex -3.08658 -4.6194 0
      vertex -4.02455 -4.90393 0
    endloop
  endfacet
  facet normal -0.0980167 0.995185 0
    outer loop
      vertex -4.02455 -4.90393 5
      vertex -4.02455 -4.90393 0
      vertex -5 -5 5
    endloop
  endfacet
  facet normal -0.0980167 0.995185 0
    outer loop
      vertex -5 -5 5
      vertex -4.02455 -4.90393 0
      vertex -5 -5 0
    endloop
  endfacet
  facet normal 0.0980167 0.995185 0
    outer loop
      vertex -5 -5 5
      vertex -5 -5 0
      vertex -5.97545 -4.90393 5
    endloop
  endfacet
  facet normal 0.0980167 0.995185 0
    outer loop
      vertex -5.97545 -4.90393 5
      vertex -5 -5 0
      vertex -5.97545 -4.90393 0
    endloop
  endfacet
  facet normal 0.290285 0.95694 0
    outer loop
      vertex -5.97545 -4.90393 5
      vertex -5.97545 -4.90393 0
      vertex -6.91342 -4.6194 5
    endloop
  endfacet
  facet normal 0.290285 0.95694 0
    outer loop
      vertex -6.91342 -4.6194 5
      vertex -5.97545 -4.90393 0
      vertex -6.91342 -4.6194 0
    endloop
  endfacet
  facet normal 0.471397 0.881921 0
    outer loop
      vertex -6.91342 -4.6194 5
      vertex -6.91342 -4.6194 0
      vertex -7.77785 -4.15735 5
    endloop
  endfacet
  facet normal 0.471397 0.881921 0
    outer loop
      vertex -7.77785 -4.15735 5
      vertex -6.91342 -4.6194 0
      vertex -7.77785 -4.15735 0
    endloop
  endfacet
  facet normal 0.634393 0.773011 0
    outer loop
      vertex -7.77785 -4.15735 5
      vertex -7.77785 -4.15735 0
      vertex -8.53553 -3.53553 5
    endloop
  endfacet
  facet normal 0.634393 0.773011 0
    outer loop
      vertex -8.53553 -3.53553 5
      vertex -7.77785 -4.15735 0
      vertex -8.53553 -3.53553 0
    endloop
  endfacet
  facet normal 0.773011 0.634393 0
    outer loop
      vertex -9.15735 -2.77785 5
      vertex -8.53553 -3.53553 5
      vertex -8.53553 -3.53553 0
    endloop
  endfacet
  facet normal 0.773011 0.634393 0
    outer loop
      vertex -9.15735 -2.77785 0
      vertex -9.15735 -2.77785 5
      vertex -8.53553 -3.53553 0
    endloop
  endfacet
  facet normal 0.881921 0.471397 0
    outer loop
      vertex -9.6194 -1.91342 5
      vertex -9.15735 -2.77785 5
      vertex -9.15735 -2.77785 0
    endloop
  endfacet
  facet normal 0.881921 0.471397 0
    outer loop
      vertex -9.6194 -1.91342 0
      vertex -9.6194 -1.91342 5
      vertex -9.15735 -2.77785 0
    endloop
  endfacet
  facet normal 0.95694 0.290285 0
    outer loop
      vertex -9.90393 -0.975451 5
      vertex -9.6194 -1.91342 5
      vertex -9.6194 -1.91342 0
    endloop
  endfacet
  facet normal 0.95694 0.290285 0
    outer loop
      vertex -9.90393 -0.975451 0
      vertex -9.90393 -0.975451 5
      vertex -9.6194 -1.91342 0
    endloop
  endfacet
  facet normal 0.995185 0.0980167 0
    outer loop
      vertex -10 0 5
      vertex -9.90393 -0.975451 5
      vertex -9.90393 -0.975451 0
    endloop
  endfacet
  facet normal 0.995185 0.0980167 0
    outer loop
      vertex -10 0 0
      vertex -10 0 5
      vertex -9.90393 -0.975451 0
    endloop
  endfacet
  facet normal 0.995185 -0.0980167 0
    outer loop
      vertex -9.90393 0.975451 0
      vertex -9.90393 0.975451 5
      vertex -10 0 5
    endloop
  endfacet
  facet normal 0.995185 -0.0980167 0
    outer loop
      vertex -10 0 0
      vertex -9.90393 0.975451 0
      vertex -10 0 5
    endloop
  endfacet
  facet normal 0.95694 -0.290285 0
    outer loop
      vertex -9.6194 1.91342 0
      vertex -9.6194 1.91342 5
      vertex -9.90393 0.975451 5
    endloop
  endfacet
  facet normal 0.95694 -0.290285 0
    outer loop
      vertex -9.90393 0.975451 0
      vertex -9.6194 1.91342 0
      vertex -9.90393 0.975451 5
    endloop
  endfacet
  facet normal 0.881921 -0.471397 0
    outer loop
      vertex -9.15735 2.77785 0
      vertex -9.15735 2.77785 5
      vertex -9.6194 1.91342 5
    endloop
  endfacet
  facet normal 0.881921 -0.471397 0
    outer loop
      vertex -9.6194 1.91342 0
      vertex -9.15735 2.77785 0
      vertex -9.6194 1.91342 5
    endloop
  endfacet
  facet normal 0.773011 -0.634393 0
    outer loop
      vertex -8.53553 3.53553 0
      vertex -8.53553 3.53553 5
      vertex -9.15735 2.77785 5
    endloop
  endfacet
  facet normal 0.773011 -0.634393 0
    outer loop
      vertex -9.15735 2.77785 0
      vertex -8.53553 3.53553 0
      vertex -9.15735 2.77785 5
    endloop
  endfacet
  facet normal 0.634393 -0.773011 0
    outer loop
      vertex -7.77785 4.15735 0
      vertex -7.77785 4.15735 5
      vertex -8.53553 3.53553 5
    endloop
  endfacet
  facet normal 0.634393 -0.773011 0
    outer loop
      vertex -8.53553 3.53553 0
      vertex -7.77785 4.15735 0
      vertex -8.53553 3.53553 5
    endloop
  endfacet
  facet normal 0.471397 -0.881921 0
    outer loop
      vertex -6.91342 4.6194 0
      vertex -6.91342 4.6194 5
      vertex -7.77785 4.15735 5
    endloop
  endfacet
  facet normal 0.471397 -0.881921 0
    outer loop
      vertex -7.77785 4.15735 0
      vertex -6.91342 4.6194 0
      vertex -7.77785 4.15735 5
    endloop
  endfacet
  facet normal 0.290285 -0.95694 0
    outer loop
      vertex -5.97545 4.90393 0
      vertex -5.97545 4.90393 5
      vertex -6.91342 4.6194 5
    endloop
  endfacet
  facet normal 0.290285 -0.95694 0
    outer loop
      vertex -6.91342 4.6194 0
      vertex -5.97545 4.90393 0
      vertex -6.91342 4.6194 5
    endloop
  endfacet
  facet normal 0.0980167 -0.995185 0
    outer loop
      vertex -5 5 0
      vertex -5 5 5
      vertex -5.97545 4.90393 5
    endloop
  endfacet
  facet normal 0.0980167 -0.995185 0
    outer loop
      vertex -5.97545 4.90393 0
      vertex -5 5 0
      vertex -5.97545 4.90393 5
    endloop
  endfacet
  facet normal 1 0 0
    outer loop
      vertex -5 7 0
      vertex -5 7 5
      vertex -5 5 5
    endloop
  endfacet
  facet normal 1 0 0
    outer loop
      vertex -5 5 0
      vertex -5 7 0
      vertex -5 5 5
    endloop
  endfacet
  facet normal -0.0980174 0.995185 0
    outer loop
      vertex -6.36563 6.8655 0
      vertex -6.36563 6.8655 5
      vertex -5 7 0
    endloop
  endfacet
  facet normal -0.0980174 0.995185 0
    outer loop
      vertex -5 7 0
      vertex -6.36563 6.8655 5
      vertex -5 7 5
    endloop
  endfacet
  facet normal -0.290285 0.95694 0
    outer loop
      vertex -7.67878 6.46716 0
      vertex -7.67878 6.46716 5
      vertex -6.36563 6.8655 0
    endloop
  endfacet
  facet normal -0.290285 0.95694 0
    outer loop
      vertex -6.36563 6.8655 0
      vertex -7.67878 6.46716 5
      vertex -6.36563 6.8655 5
    endloop
  endfacet
  facet normal -0.471397 0.881921 0
    outer loop
      vertex -8.88899 5.82029 0
      vertex -8.88899 5.82029 5
      vertex -7.67878 6.46716 0
    endloop
  endfacet
  facet normal -0.471397 0.881921 0
    outer loop
      vertex -7.67878 6.46716 0
      vertex -8.88899 5.82029 5
      vertex -7.67878 6.46716 5
    endloop
  endfacet
  facet normal -0.634394 0.77301 0
    outer loop
      vertex -9.94975 4.94975 0
      vertex -9.94975 4.94975 5
      vertex -8.88899 5.82029 0
    endloop
  endfacet
  facet normal -0.634394 0.77301 0
    outer loop
      vertex -8.88899 5.82029 0
      vertex -9.94975 4.94975 5
      vertex -8.88899 5.82029 5
    endloop
  endfacet
  facet normal -0.77301 0.634394 0
    outer loop
      vertex -10.8203 3.88899 0
      vertex -10.8203 3.88899 5
      vertex -9.94975 4.94975 0
    endloop
  endfacet
  facet normal -0.77301 0.634394 0
    outer loop
      vertex -9.94975 4.94975 0
      vertex -10.8203 3.88899 5
      vertex -9.94975 4.94975 5
    endloop
  endfacet
  facet normal -0.881921 0.471397 0
    outer loop
      vertex -11.4672 2.67878 0
      vertex -11.4672 2.67878 5
      vertex -10.8203 3.88899 0
    endloop
  endfacet
  facet normal -0.881921 0.471397 0
    outer loop
      vertex -10.8203 3.88899 0
      vertex -11.4672 2.67878 5
      vertex -10.8203 3.88899 5
    endloop
  endfacet
  facet normal -0.95694 0.290285 0
    outer loop
      vertex -11.8655 1.36563 0
      vertex -11.8655 1.36563 5
      vertex -11.4672 2.67878 0
    endloop
  endfacet
  facet normal -0.95694 0.290285 0
    outer loop
      vertex -11.4672 2.67878 0
      vertex -11.8655 1.36563 5
      vertex -11.4672 2.67878 5
    endloop
  endfacet
  facet normal 0 0 1
    outer loop
      vertex -11.8655 1.36563 5
      vertex -12 0 5
      vertex -11.8655 -1.36563 5
    endloop
  endfacet
  facet normal 0 0 1
    outer loop
      vertex -10.8203 -3.88899 5
      vertex -11.8655 1.36563 5
      vertex -11.4672 -2.67878 5
    endloop
  endfacet
  facet normal 0 0 1
    outer loop
      vertex -11.4672 -2.67878 5
      vertex -11.8655 1.36563 5
      vertex -11.8655 -1.36563 5
    endloop
  endfacet
  facet normal 0 0 1
    outer loop
      vertex -9.94975 -4.94975 5
      vertex -11.8655 1.36563 5
      vertex -10.8203 -3.88899 5
    endloop
  endfacet
  facet normal 0 0 1
    outer loop
      vertex -8.88899 -5.82029 5
      vertex -11.8655 1.36563 5
      vertex -9.94975 -4.94975 5
    endloop
  endfacet
  facet normal 0 0 1
    outer loop
      vertex -7.67878 -6.46716 5
      vertex -11.8655 1.36563 5
      vertex -8.88899 -5.82029 5
    endloop
  endfacet
  facet normal 0 0 1
    outer loop
      vertex -9.15735 -2.77785 5
      vertex -11.8655 1.36563 5
      vertex -7.67878 -6.46716 5
    endloop
  endfacet
  facet normal 0 0 1
    outer loop
      vertex -9.15735 -2.77785 5
      vertex -9.6194 -1.91342 5
      vertex -11.8655 1.36563 5
    endloop
  endfacet
  facet normal 0 0 1
    outer loop
      vertex -8.53553 -3.53553 5
      vertex -9.15735 -2.77785 5
      vertex -6.36563 -6.8655 5
    endloop
  endfacet
  facet normal 0 0 1
    outer loop
      vertex -6.91342 -4.6194 5
      vertex -7.77785 -4.15735 5
      vertex -5 -7 5
    endloop
  endfacet
  facet normal 0 0 1
    outer loop
      vertex -5 -5 5
      vertex -5.97545 -4.90393 5
      vertex -3.63437 -6.8655 5
    endloop
  endfacet
  facet normal 0 0 1
    outer loop
      vertex -4.02455 -4.90393 5
      vertex -5 -5 5
      vertex -2.32122 -6.46716 5
    endloop
  endfacet
  facet normal 0 0 1
    outer loop
      vertex -2.22215 -4.15735 5
      vertex -3.08658 -4.6194 5
      vertex -1.11101 -5.82029 5
    endloop
  endfacet
  facet normal 0 0 1
    outer loop
      vertex -1.46447 -3.53553 5
      vertex -2.22215 -4.15735 5
      vertex -0.0502529 -4.94975 5
    endloop
  endfacet
  facet normal 0 0 1
    outer loop
      vertex -0.842652 -2.77785 5
      vertex -1.46447 -3.53553 5
      vertex 0.820288 -3.88899 5
    endloop
  endfacet
  facet normal 0 0 1
    outer loop
      vertex -9.6194 -1.91342 5
      vertex -9.90393 -0.975451 5
      vertex -11.8655 1.36563 5
    endloop
  endfacet
  facet normal 0 0 1
    outer loop
      vertex 2 0 5
      vertex 0 0 5
      vertex 1.8655 -1.36563 5
    endloop
  endfacet
  facet normal 0 0 1
    outer loop
      vertex 0 0 5
      vertex -0.0960732 -0.975451 5
      vertex 1.8655 -1.36563 5
    endloop
  endfacet
  facet normal 0 0 1
    outer loop
      vertex -8.53553 3.53553 5
      vertex -7.77785 4.15735 5
      vertex -5 7 5
    endloop
  endfacet
  facet normal 0 0 1
    outer loop
      vertex 1.8655 -1.36563 5
      vertex -0.380602 -1.91342 5
      vertex 1.46716 -2.67878 5
    endloop
  endfacet
  facet normal 0 0 1
    outer loop
      vertex 1.46716 -2.67878 5
      vertex -0.842652 -2.77785 5
      vertex 0.820288 -3.88899 5
    endloop
  endfacet
  facet normal 0 0 1
    outer loop
      vertex -9.90393 0.975451 5
      vertex -9.6194 1.91342 5
      vertex -11.8655 1.36563 5
    endloop
  endfacet
  facet normal 0 0 1
    outer loop
      vertex 0.820288 -3.88899 5
      vertex -1.46447 -3.53553 5
      vertex -0.0502529 -4.94975 5
    endloop
  endfacet
  facet normal 0 0 1
    outer loop
      vertex -0.0502529 -4.94975 5
      vertex -2.22215 -4.15735 5
      vertex -1.11101 -5.82029 5
    endloop
  endfacet
  facet normal 0 0 1
    outer loop
      vertex -1.11101 -5.82029 5
      vertex -3.08658 -4.6194 5
      vertex -2.32122 -6.46716 5
    endloop
  endfacet
  facet normal 0 0 1
    outer loop
      vertex -3.08658 -4.6194 5
      vertex -4.02455 -4.90393 5
      vertex -2.32122 -6.46716 5
    endloop
  endfacet
  facet normal 0 0 1
    outer loop
      vertex -2.32122 -6.46716 5
      vertex -5 -5 5
      vertex -3.63437 -6.8655 5
    endloop
  endfacet
  facet normal 0 0 1
    outer loop
      vertex -3.63437 -6.8655 5
      vertex -5.97545 -4.90393 5
      vertex -5 -7 5
    endloop
  endfacet
  facet normal 0 0 1
    outer loop
      vertex -5.97545 -4.90393 5
      vertex -6.91342 -4.6194 5
      vertex -5 -7 5
    endloop
  endfacet
  facet normal 0 0 1
    outer loop
      vertex -5 -7 5
      vertex -7.77785 -4.15735 5
      vertex -6.36563 -6.8655 5
    endloop
  endfacet
  facet normal 0 0 1
    outer loop
      vertex -7.77785 -4.15735 5
      vertex -8.53553 -3.53553 5
      vertex -6.36563 -6.8655 5
    endloop
  endfacet
  facet normal 0 0 1
    outer loop
      vertex -6.36563 -6.8655 5
      vertex -9.15735 -2.77785 5
      vertex -7.67878 -6.46716 5
    endloop
  endfacet
  facet normal 0 0 1
    outer loop
      vertex -0.380602 -1.91342 5
      vertex -0.842652 -2.77785 5
      vertex 1.46716 -2.67878 5
    endloop
  endfacet
  facet normal 0 0 1
    outer loop
      vertex -0.0960732 -0.975451 5
      vertex -0.380602 -1.91342 5
      vertex 1.8655 -1.36563 5
    endloop
  endfacet
  facet normal 0 0 1
    outer loop
      vertex -9.15735 2.77785 5
      vertex -11.8655 1.36563 5
      vertex -9.6194 1.91342 5
    endloop
  endfacet
  facet normal 0 0 1
    outer loop
      vertex -8.53553 3.53553 5
      vertex -11.8655 1.36563 5
      vertex -9.15735 2.77785 5
    endloop
  endfacet
  facet normal 0 0 1
    outer loop
      vertex -9.90393 -0.975451 5
      vertex -10 0 5
      vertex -11.8655 1.36563 5
    endloop
  endfacet
  facet normal 0 0 1
    outer loop
      vertex -10 0 5
      vertex -9.90393 0.975451 5
      vertex -11.8655 1.36563 5
    endloop
  endfacet
  facet normal 0 0 1
    outer loop
      vertex -8.88899 5.82029 5
      vertex -11.8655 1.36563 5
      vertex -7.67878 6.46716 5
    endloop
  endfacet
  facet normal 0 0 1
    outer loop
      vertex -9.94975 4.94975 5
      vertex -11.8655 1.36563 5
      vertex -8.88899 5.82029 5
    endloop
  endfacet
  facet normal 0 0 1
    outer loop
      vertex -10.8203 3.88899 5
      vertex -11.8655 1.36563 5
      vertex -9.94975 4.94975 5
    endloop
  endfacet
  facet normal 0 0 1
    outer loop
      vertex -11.4672 2.67878 5
      vertex -11.8655 1.36563 5
      vertex -10.8203 3.88899 5
    endloop
  endfacet
  facet normal 0 0 1
    outer loop
      vertex -5.97545 4.90393 5
      vertex -5 7 5
      vertex -6.91342 4.6194 5
    endloop
  endfacet
  facet normal 0 0 1
    outer loop
      vertex -5 5 5
      vertex -5 7 5
      vertex -5.97545 4.90393 5
    endloop
  endfacet
  facet normal 0 0 1
    outer loop
      vertex -6.36563 6.8655 5
      vertex -7.67878 6.46716 5
      vertex -11.8655 1.36563 5
    endloop
  endfacet
  facet normal 0 0 1
    outer loop
      vertex -7.77785 4.15735 5
      vertex -6.91342 4.6194 5
      vertex -5 7 5
    endloop
  endfacet
  facet normal 0 0 1
    outer loop
      vertex -5 7 5
      vertex -11.8655 1.36563 5
      vertex -8.53553 3.53553 5
    endloop
  endfacet
  facet normal 0 0 1
    outer loop
      vertex -5 7 5
      vertex -6.36563 6.8655 5
      vertex -11.8655 1.36563 5
    endloop
  endfacet
  facet normal 0 0 1
    outer loop
      vertex 0 15 5
      vertex 2 0 5
      vertex 2 15 5
    endloop
  endfacet
  facet normal 0 0 1
    outer loop
      vertex 0 15 5
      vertex 0 0 5
      vertex 2 0 5
    endloop
  endfacet
  facet normal 0 0.382683 0.92388
    outer loop
      vertex 2 11.6161 1.61612
      vertex 2 12.5 1.25
      vertex 0 12.5 1.25
    endloop
  endfacet
  facet normal 0 0.382683 0.92388
    outer loop
      vertex 0 11.6161 1.61612
      vertex 2 11.6161 1.61612
      vertex 0 12.5 1.25
    endloop
  endfacet
  facet normal 0 0.92388 0.382683
    outer loop
      vertex 2 11.6161 1.61612
      vertex 0 11.6161 1.61612
      vertex 2 11.25 2.5
    endloop
  endfacet
  facet normal 0 0.92388 0.382683
    outer loop
      vertex 2 11.25 2.5
      vertex 0 11.6161 1.61612
      vertex 0 11.25 2.5
    endloop
  endfacet
  facet normal 0 -0.382683 0.92388
    outer loop
      vertex 2 12.5 1.25
      vertex 2 13.3839 1.61612
      vertex 0 13.3839 1.61612
    endloop
  endfacet
  facet normal 0 -0.382683 0.92388
    outer loop
      vertex 0 12.5 1.25
      vertex 2 12.5 1.25
      vertex 0 13.3839 1.61612
    endloop
  endfacet
  facet normal 0 -0.92388 0.382683
    outer loop
      vertex 2 13.3839 1.61612
      vertex 2 13.75 2.5
      vertex 0 13.75 2.5
    endloop
  endfacet
  facet normal 0 -0.92388 0.382683
    outer loop
      vertex 0 13.3839 1.61612
      vertex 2 13.3839 1.61612
      vertex 0 13.75 2.5
    endloop
  endfacet
  facet normal 0 -0.92388 -0.382683
    outer loop
      vertex 0 13.75 2.5
      vertex 2 13.75 2.5
      vertex 2 13.3839 3.38388
    endloop
  endfacet
  facet normal 0 -0.92388 -0.382683
    outer loop
      vertex 0 13.3839 3.38388
      vertex 0 13.75 2.5
      vertex 2 13.3839 3.38388
    endloop
  endfacet
  facet normal 0 -0.382683 -0.92388
    outer loop
      vertex 2 13.3839 3.38388
      vertex 2 12.5 3.75
      vertex 0 13.3839 3.38388
    endloop
  endfacet
  facet normal 0 -0.382683 -0.92388
    outer loop
      vertex 0 13.3839 3.38388
      vertex 2 12.5 3.75
      vertex 0 12.5 3.75
    endloop
  endfacet
  facet normal 0 0.382683 -0.92388
    outer loop
      vertex 2 12.5 3.75
      vertex 2 11.6161 3.38388
      vertex 0 12.5 3.75
    endloop
  endfacet
  facet normal 0 0.382683 -0.92388
    outer loop
      vertex 0 12.5 3.75
      vertex 2 11.6161 3.38388
      vertex 0 11.6161 3.38388
    endloop
  endfacet
  facet normal 0 0.92388 -0.382683
    outer loop
      vertex 2 11.6161 3.38388
      vertex 2 11.25 2.5
      vertex 0 11.6161 3.38388
    endloop
  endfacet
  facet normal 0 0.92388 -0.382683
    outer loop
      vertex 0 11.6161 3.38388
      vertex 2 11.25 2.5
      vertex 0 11.25 2.5
    endloop
  endfacet
endsolid OpenSCAD_Model
