solid OpenSCAD_Model
  facet normal -0.995185 -0.0980175 0
    outer loop
      vertex -5 0 0
      vertex -4.90393 -0.975452 0
      vertex -5 0 10
    endloop
  endfacet
  facet normal -0.995185 -0.0980175 0
    outer loop
      vertex -5 0 10
      vertex -4.90393 -0.975452 0
      vertex -4.90393 -0.975452 10
    endloop
  endfacet
  facet normal 0 0 -1
    outer loop
      vertex -5 0 0
      vertex -4.90393 0.975452 0
      vertex -4.90393 -0.975452 0
    endloop
  endfacet
  facet normal 0 0 -1
    outer loop
      vertex -4.90393 -0.975452 0
      vertex -4.90393 0.975452 0
      vertex -4.6194 1.91342 0
    endloop
  endfacet
  facet normal 0 0 -1
    outer loop
      vertex -4.90393 -0.975452 0
      vertex -4.6194 1.91342 0
      vertex -4.15735 2.77785 0
    endloop
  endfacet
  facet normal 0 0 -1
    outer loop
      vertex -4.90393 -0.975452 0
      vertex -4.15735 2.77785 0
      vertex -3.53553 3.53553 0
    endloop
  endfacet
  facet normal 0 0 -1
    outer loop
      vertex -4.90393 -0.975452 0
      vertex -3.53553 3.53553 0
      vertex -2.77785 4.15735 0
    endloop
  endfacet
  facet normal 0 0 -1
    outer loop
      vertex -4.90393 -0.975452 0
      vertex -2.77785 4.15735 0
      vertex -1.91342 4.6194 0
    endloop
  endfacet
  facet normal 0 0 -1
    outer loop
      vertex -4.90393 -0.975452 0
      vertex -1.91342 4.6194 0
      vertex -0.975452 4.90393 0
    endloop
  endfacet
  facet normal 0 0 -1
    outer loop
      vertex -1.11114 3.66294 0
      vertex -0.975452 4.90393 0
      vertex 0 5 0
    endloop
  endfacet
  facet normal 0 0 -1
    outer loop
      vertex 0 4 0
      vertex 0 5 0
      vertex 0.975452 4.90393 0
    endloop
  endfacet
  facet normal 0 0 -1
    outer loop
      vertex 1.84776 2.76537 0
      vertex 0.975452 4.90393 0
      vertex 20.1951 0.980785 0
    endloop
  endfacet
  facet normal 0 0 -1
    outer loop
      vertex -4.90393 -0.975452 0
      vertex 20.1951 0.980785 0
      vertex 20.3827 0.92388 0
    endloop
  endfacet
  facet normal 0 0 -1
    outer loop
      vertex -4.90393 -0.975452 0
      vertex 20.3827 0.92388 0
      vertex 20.5556 0.83147 0
    endloop
  endfacet
  facet normal 0 0 -1
    outer loop
      vertex -4.90393 -0.975452 0
      vertex 20.5556 0.83147 0
      vertex 20.7071 0.707107 0
    endloop
  endfacet
  facet normal 0 0 -1
    outer loop
      vertex -4.90393 -0.975452 0
      vertex 20.7071 0.707107 0
      vertex 20.8315 0.55557 0
    endloop
  endfacet
  facet normal 0 0 -1
    outer loop
      vertex -4.90393 -0.975452 0
      vertex 20.8315 0.55557 0
      vertex 20.9239 0.382683 0
    endloop
  endfacet
  facet normal 0 0 -1
    outer loop
      vertex -4.90393 -0.975452 0
      vertex 20.9239 0.382683 0
      vertex 20.9808 0.19509 0
    endloop
  endfacet
  facet normal 0 0 -1
    outer loop
      vertex -4.90393 -0.975452 0
      vertex 20.9808 0.19509 0
      vertex 21 0 0
    endloop
  endfacet
  facet normal 0 0 -1
    outer loop
      vertex -4.90393 -0.975452 0
      vertex 21 0 0
      vertex 20.9808 -0.19509 0
    endloop
  endfacet
  facet normal 0 0 -1
    outer loop
      vertex -4.90393 -0.975452 0
      vertex 20.9808 -0.19509 0
      vertex 20.9239 -0.382683 0
    endloop
  endfacet
  facet normal 0 0 -1
    outer loop
      vertex -4.90393 -0.975452 0
      vertex 20.9239 -0.382683 0
      vertex 20.8315 -0.55557 0
    endloop
  endfacet
  facet normal 0 0 -1
    outer loop
      vertex -4.90393 -0.975452 0
      vertex 20.8315 -0.55557 0
      vertex 20.7071 -0.707107 0
    endloop
  endfacet
  facet normal 0 0 -1
    outer loop
      vertex -4.90393 -0.975452 0
      vertex 20.7071 -0.707107 0
      vertex 20.5556 -0.83147 0
    endloop
  endfacet
  facet normal 0 0 -1
    outer loop
      vertex -4.90393 -0.975452 0
      vertex 20.5556 -0.83147 0
      vertex 20.3827 -0.92388 0
    endloop
  endfacet
  facet normal 0 0 -1
    outer loop
      vertex -4.90393 -0.975452 0
      vertex 20.3827 -0.92388 0
      vertex 20.1951 -0.980785 0
    endloop
  endfacet
  facet normal 0 0 -1
    outer loop
      vertex -4.90393 -0.975452 0
      vertex 20.1951 -0.980785 0
      vertex 0.975452 -4.90393 0
    endloop
  endfacet
  facet normal 0 0 -1
    outer loop
      vertex -4.90393 -0.975452 0
      vertex 0.975452 -4.90393 0
      vertex 0 -5 0
    endloop
  endfacet
  facet normal 0 0 -1
    outer loop
      vertex -4.90393 -0.975452 0
      vertex 0 -5 0
      vertex -0.975452 -4.90393 0
    endloop
  endfacet
  facet normal 0 0 -1
    outer loop
      vertex -4.90393 -0.975452 0
      vertex -0.975452 -4.90393 0
      vertex -1.91342 -4.6194 0
    endloop
  endfacet
  facet normal 0 0 -1
    outer loop
      vertex -4.90393 -0.975452 0
      vertex -1.91342 -4.6194 0
      vertex -2.77785 -4.15735 0
    endloop
  endfacet
  facet normal 0 0 -1
    outer loop
      vertex -4.90393 -0.975452 0
      vertex -2.77785 -4.15735 0
      vertex -3.53553 -3.53553 0
    endloop
  endfacet
  facet normal 0 0 -1
    outer loop
      vertex -4.90393 -0.975452 0
      vertex -3.53553 -3.53553 0
      vertex -4.15735 -2.77785 0
    endloop
  endfacet
  facet normal 0 0 -1
    outer loop
      vertex -4.90393 -0.975452 0
      vertex -4.15735 -2.77785 0
      vertex -4.6194 -1.91342 0
    endloop
  endfacet
  facet normal 0 0 -1
    outer loop
      vertex 0.765367 0.152241 0
      vertex 20.1951 0.980785 0
      vertex 0.390181 0.038429 0
    endloop
  endfacet
  facet normal 0 0 -1
    outer loop
      vertex -4.90393 -0.975452 0
      vertex -1.96157 1.60982 0
      vertex -1.84776 1.23463 0
    endloop
  endfacet
  facet normal 0 0 -1
    outer loop
      vertex -4.90393 -0.975452 0
      vertex -1.84776 1.23463 0
      vertex -1.66294 0.88886 0
    endloop
  endfacet
  facet normal 0 0 -1
    outer loop
      vertex -4.90393 -0.975452 0
      vertex -1.66294 0.88886 0
      vertex -1.41421 0.585786 0
    endloop
  endfacet
  facet normal 0 0 -1
    outer loop
      vertex -4.90393 -0.975452 0
      vertex -1.41421 0.585786 0
      vertex -1.11114 0.337061 0
    endloop
  endfacet
  facet normal 0 0 -1
    outer loop
      vertex -4.90393 -0.975452 0
      vertex -1.11114 0.337061 0
      vertex -0.765367 0.152241 0
    endloop
  endfacet
  facet normal 0 0 -1
    outer loop
      vertex -4.90393 -0.975452 0
      vertex -0.765367 0.152241 0
      vertex -0.390181 0.038429 0
    endloop
  endfacet
  facet normal 0 0 -1
    outer loop
      vertex -4.90393 -0.975452 0
      vertex -0.390181 0.038429 0
      vertex 0 0 0
    endloop
  endfacet
  facet normal 0 0 -1
    outer loop
      vertex -4.90393 -0.975452 0
      vertex 0 0 0
      vertex 20.1951 0.980785 0
    endloop
  endfacet
  facet normal 0 0 -1
    outer loop
      vertex 0 0 0
      vertex 0.390181 0.038429 0
      vertex 20.1951 0.980785 0
    endloop
  endfacet
  facet normal 0 0 -1
    outer loop
      vertex 1.11114 0.337061 0
      vertex 20.1951 0.980785 0
      vertex 0.765367 0.152241 0
    endloop
  endfacet
  facet normal 0 0 -1
    outer loop
      vertex 1.41421 0.585786 0
      vertex 20.1951 0.980785 0
      vertex 1.11114 0.337061 0
    endloop
  endfacet
  facet normal 0 0 -1
    outer loop
      vertex 1.66294 0.88886 0
      vertex 20.1951 0.980785 0
      vertex 1.41421 0.585786 0
    endloop
  endfacet
  facet normal 0 0 -1
    outer loop
      vertex 1.84776 1.23463 0
      vertex 20.1951 0.980785 0
      vertex 1.66294 0.88886 0
    endloop
  endfacet
  facet normal 0 0 -1
    outer loop
      vertex 1.96157 1.60982 0
      vertex 20.1951 0.980785 0
      vertex 1.84776 1.23463 0
    endloop
  endfacet
  facet normal 0 0 -1
    outer loop
      vertex 0 4 0
      vertex 0.975452 4.90393 0
      vertex 0.390181 3.96157 0
    endloop
  endfacet
  facet normal 0 0 -1
    outer loop
      vertex 1.66294 3.11114 0
      vertex 0.975452 4.90393 0
      vertex 1.84776 2.76537 0
    endloop
  endfacet
  facet normal 0 0 -1
    outer loop
      vertex 1.96157 1.60982 0
      vertex 2 2 0
      vertex 20.1951 0.980785 0
    endloop
  endfacet
  facet normal 0 0 -1
    outer loop
      vertex 1.41421 3.41421 0
      vertex 0.975452 4.90393 0
      vertex 1.66294 3.11114 0
    endloop
  endfacet
  facet normal 0 0 -1
    outer loop
      vertex 2 2 0
      vertex 1.96157 2.39018 0
      vertex 20.1951 0.980785 0
    endloop
  endfacet
  facet normal 0 0 -1
    outer loop
      vertex 1.96157 2.39018 0
      vertex 1.84776 2.76537 0
      vertex 20.1951 0.980785 0
    endloop
  endfacet
  facet normal 0 0 -1
    outer loop
      vertex 1.11114 3.66294 0
      vertex 0.975452 4.90393 0
      vertex 1.41421 3.41421 0
    endloop
  endfacet
  facet normal 0 0 -1
    outer loop
      vertex 0.765367 3.84776 0
      vertex 0.975452 4.90393 0
      vertex 1.11114 3.66294 0
    endloop
  endfacet
  facet normal 0 0 -1
    outer loop
      vertex 0.390181 3.96157 0
      vertex 0.975452 4.90393 0
      vertex 0.765367 3.84776 0
    endloop
  endfacet
  facet normal 0 0 -1
    outer loop
      vertex -0.390181 3.96157 0
      vertex 0 5 0
      vertex 0 4 0
    endloop
  endfacet
  facet normal 0 0 -1
    outer loop
      vertex -1.11114 3.66294 0
      vertex 0 5 0
      vertex -0.765367 3.84776 0
    endloop
  endfacet
  facet normal 0 0 -1
    outer loop
      vertex -0.765367 3.84776 0
      vertex 0 5 0
      vertex -0.390181 3.96157 0
    endloop
  endfacet
  facet normal 0 0 -1
    outer loop
      vertex -1.41421 3.41421 0
      vertex -0.975452 4.90393 0
      vertex -1.11114 3.66294 0
    endloop
  endfacet
  facet normal 0 0 -1
    outer loop
      vertex -1.84776 2.76537 0
      vertex -4.90393 -0.975452 0
      vertex -1.66294 3.11114 0
    endloop
  endfacet
  facet normal 0 0 -1
    outer loop
      vertex -1.66294 3.11114 0
      vertex -0.975452 4.90393 0
      vertex -1.41421 3.41421 0
    endloop
  endfacet
  facet normal 0 0 -1
    outer loop
      vertex -4.90393 -0.975452 0
      vertex -0.975452 4.90393 0
      vertex -1.66294 3.11114 0
    endloop
  endfacet
  facet normal 0 0 -1
    outer loop
      vertex -1.96157 2.39018 0
      vertex -4.90393 -0.975452 0
      vertex -1.84776 2.76537 0
    endloop
  endfacet
  facet normal 0 0 -1
    outer loop
      vertex -4.90393 -0.975452 0
      vertex -1.96157 2.39018 0
      vertex -2 2 0
    endloop
  endfacet
  facet normal 0 0 -1
    outer loop
      vertex -1.96157 1.60982 0
      vertex -4.90393 -0.975452 0
      vertex -2 2 0
    endloop
  endfacet
  facet normal -0.995185 0.0980175 0
    outer loop
      vertex -5 0 0
      vertex -5 0 10
      vertex -4.90393 0.975452 0
    endloop
  endfacet
  facet normal -0.995185 0.0980175 0
    outer loop
      vertex -4.90393 0.975452 0
      vertex -5 0 10
      vertex -4.90393 0.975452 10
    endloop
  endfacet
  facet normal 0 0 1
    outer loop
      vertex -4.90393 0.975452 10
      vertex -5 0 10
      vertex -4.90393 -0.975452 10
    endloop
  endfacet
  facet normal 0 0 1
    outer loop
      vertex -4.15735 -2.77785 10
      vertex -4.90393 0.975452 10
      vertex -4.6194 -1.91342 10
    endloop
  endfacet
  facet normal 0 0 1
    outer loop
      vertex -4.6194 -1.91342 10
      vertex -4.90393 0.975452 10
      vertex -4.90393 -0.975452 10
    endloop
  endfacet
  facet normal 0 0 1
    outer loop
      vertex -3.53553 -3.53553 10
      vertex -4.90393 0.975452 10
      vertex -4.15735 -2.77785 10
    endloop
  endfacet
  facet normal 0 0 1
    outer loop
      vertex -2.77785 -4.15735 10
      vertex -4.90393 0.975452 10
      vertex -3.53553 -3.53553 10
    endloop
  endfacet
  facet normal 0 0 1
    outer loop
      vertex -1.91342 -4.6194 10
      vertex -4.90393 0.975452 10
      vertex -2.77785 -4.15735 10
    endloop
  endfacet
  facet normal 0 0 1
    outer loop
      vertex -0.975452 -4.90393 10
      vertex -4.90393 0.975452 10
      vertex -1.91342 -4.6194 10
    endloop
  endfacet
  facet normal 0 0 1
    outer loop
      vertex 0 -5 10
      vertex -4.90393 0.975452 10
      vertex -0.975452 -4.90393 10
    endloop
  endfacet
  facet normal 0 0 1
    outer loop
      vertex 0.975452 -4.90393 10
      vertex -4.90393 0.975452 10
      vertex 0 -5 10
    endloop
  endfacet
  facet normal 0 0 1
    outer loop
      vertex -0.390181 0.038429 10
      vertex -4.90393 0.975452 10
      vertex 0.975452 -4.90393 10
    endloop
  endfacet
  facet normal 0 0 1
    outer loop
      vertex -0.765367 0.152241 10
      vertex -1.11114 0.337061 10
      vertex -4.90393 0.975452 10
    endloop
  endfacet
  facet normal 0 0 1
    outer loop
      vertex 1.41421 0.585786 10
      vertex 20.5556 -0.83147 10
      vertex 20.7071 -0.707107 10
    endloop
  endfacet
  facet normal 0 0 1
    outer loop
      vertex 1.41421 0.585786 10
      vertex 20.3827 -0.92388 10
      vertex 20.5556 -0.83147 10
    endloop
  endfacet
  facet normal 0 0 1
    outer loop
      vertex 1.41421 0.585786 10
      vertex 20.1951 -0.980785 10
      vertex 20.3827 -0.92388 10
    endloop
  endfacet
  facet normal 0 0 1
    outer loop
      vertex 1.41421 0.585786 10
      vertex 1.11114 0.337061 10
      vertex 20.1951 -0.980785 10
    endloop
  endfacet
  facet normal 0 0 1
    outer loop
      vertex 1.66294 0.88886 10
      vertex 20.9239 0.382683 10
      vertex 20.8315 0.55557 10
    endloop
  endfacet
  facet normal 0 0 1
    outer loop
      vertex 1.66294 0.88886 10
      vertex 20.9808 0.19509 10
      vertex 20.9239 0.382683 10
    endloop
  endfacet
  facet normal 0 0 1
    outer loop
      vertex -0.975452 4.90393 10
      vertex -4.90393 0.975452 10
      vertex 0 5 10
    endloop
  endfacet
  facet normal 0 0 1
    outer loop
      vertex -1.91342 4.6194 10
      vertex -4.90393 0.975452 10
      vertex -0.975452 4.90393 10
    endloop
  endfacet
  facet normal 0 0 1
    outer loop
      vertex -2.77785 4.15735 10
      vertex -4.90393 0.975452 10
      vertex -1.91342 4.6194 10
    endloop
  endfacet
  facet normal 0 0 1
    outer loop
      vertex -3.53553 3.53553 10
      vertex -4.90393 0.975452 10
      vertex -2.77785 4.15735 10
    endloop
  endfacet
  facet normal 0 0 1
    outer loop
      vertex -4.15735 2.77785 10
      vertex -4.90393 0.975452 10
      vertex -3.53553 3.53553 10
    endloop
  endfacet
  facet normal 0 0 1
    outer loop
      vertex -4.6194 1.91342 10
      vertex -4.90393 0.975452 10
      vertex -4.15735 2.77785 10
    endloop
  endfacet
  facet normal 0 0 1
    outer loop
      vertex 1.84776 1.23463 10
      vertex 20.3827 0.92388 10
      vertex 20.1951 0.980785 10
    endloop
  endfacet
  facet normal 0 0 1
    outer loop
      vertex -2 2 10
      vertex -4.90393 0.975452 10
      vertex -1.96157 1.60982 10
    endloop
  endfacet
  facet normal 0 0 1
    outer loop
      vertex 1.96157 1.60982 10
      vertex 1.84776 1.23463 10
      vertex 20.1951 0.980785 10
    endloop
  endfacet
  facet normal 0 0 1
    outer loop
      vertex -1.96157 2.39018 10
      vertex -4.90393 0.975452 10
      vertex -2 2 10
    endloop
  endfacet
  facet normal 0 0 1
    outer loop
      vertex -1.84776 2.76537 10
      vertex -4.90393 0.975452 10
      vertex -1.96157 2.39018 10
    endloop
  endfacet
  facet normal 0 0 1
    outer loop
      vertex -1.66294 3.11114 10
      vertex -4.90393 0.975452 10
      vertex -1.84776 2.76537 10
    endloop
  endfacet
  facet normal 0 0 1
    outer loop
      vertex -0.390181 3.96157 10
      vertex 0 4 10
      vertex 0.975452 4.90393 10
    endloop
  endfacet
  facet normal 0 0 1
    outer loop
      vertex 0 5 10
      vertex -4.90393 0.975452 10
      vertex -1.41421 3.41421 10
    endloop
  endfacet
  facet normal 0 0 1
    outer loop
      vertex 0 5 10
      vertex -1.11114 3.66294 10
      vertex 0.975452 4.90393 10
    endloop
  endfacet
  facet normal 0 0 1
    outer loop
      vertex 0 5 10
      vertex -1.41421 3.41421 10
      vertex -1.11114 3.66294 10
    endloop
  endfacet
  facet normal 0 0 1
    outer loop
      vertex -1.11114 3.66294 10
      vertex -0.765367 3.84776 10
      vertex 0.975452 4.90393 10
    endloop
  endfacet
  facet normal 0 0 1
    outer loop
      vertex 0 4 10
      vertex 0.390181 3.96157 10
      vertex 0.975452 4.90393 10
    endloop
  endfacet
  facet normal 0 0 1
    outer loop
      vertex 1.84776 1.23463 10
      vertex 20.5556 0.83147 10
      vertex 20.3827 0.92388 10
    endloop
  endfacet
  facet normal 0 0 1
    outer loop
      vertex 0.975452 4.90393 10
      vertex 0.390181 3.96157 10
      vertex 20.1951 0.980785 10
    endloop
  endfacet
  facet normal 0 0 1
    outer loop
      vertex 0.390181 3.96157 10
      vertex 0.765367 3.84776 10
      vertex 20.1951 0.980785 10
    endloop
  endfacet
  facet normal 0 0 1
    outer loop
      vertex 0.765367 3.84776 10
      vertex 1.11114 3.66294 10
      vertex 20.1951 0.980785 10
    endloop
  endfacet
  facet normal 0 0 1
    outer loop
      vertex 1.11114 3.66294 10
      vertex 1.41421 3.41421 10
      vertex 20.1951 0.980785 10
    endloop
  endfacet
  facet normal 0 0 1
    outer loop
      vertex 1.41421 3.41421 10
      vertex 1.66294 3.11114 10
      vertex 20.1951 0.980785 10
    endloop
  endfacet
  facet normal 0 0 1
    outer loop
      vertex 1.66294 3.11114 10
      vertex 1.84776 2.76537 10
      vertex 20.1951 0.980785 10
    endloop
  endfacet
  facet normal 0 0 1
    outer loop
      vertex 1.84776 2.76537 10
      vertex 1.96157 2.39018 10
      vertex 20.1951 0.980785 10
    endloop
  endfacet
  facet normal 0 0 1
    outer loop
      vertex 1.96157 2.39018 10
      vertex 2 2 10
      vertex 20.1951 0.980785 10
    endloop
  endfacet
  facet normal 0 0 1
    outer loop
      vertex 2 2 10
      vertex 1.96157 1.60982 10
      vertex 20.1951 0.980785 10
    endloop
  endfacet
  facet normal 0 0 1
    outer loop
      vertex 20.7071 0.707107 10
      vertex 1.66294 0.88886 10
      vertex 20.8315 0.55557 10
    endloop
  endfacet
  facet normal 0 0 1
    outer loop
      vertex 20.8315 -0.55557 10
      vertex 1.41421 0.585786 10
      vertex 20.7071 -0.707107 10
    endloop
  endfacet
  facet normal 0 0 1
    outer loop
      vertex 20.1951 -0.980785 10
      vertex 1.11114 0.337061 10
      vertex 0.975452 -4.90393 10
    endloop
  endfacet
  facet normal 0 0 1
    outer loop
      vertex 1.11114 0.337061 10
      vertex 0.765367 0.152241 10
      vertex 0.975452 -4.90393 10
    endloop
  endfacet
  facet normal 0 0 1
    outer loop
      vertex 0.765367 0.152241 10
      vertex 0.390181 0.038429 10
      vertex 0.975452 -4.90393 10
    endloop
  endfacet
  facet normal 0 0 1
    outer loop
      vertex 0.390181 0.038429 10
      vertex 0 0 10
      vertex 0.975452 -4.90393 10
    endloop
  endfacet
  facet normal 0 0 1
    outer loop
      vertex -1.11114 0.337061 10
      vertex -1.41421 0.585786 10
      vertex -4.90393 0.975452 10
    endloop
  endfacet
  facet normal 0 0 1
    outer loop
      vertex 0 0 10
      vertex -0.390181 0.038429 10
      vertex 0.975452 -4.90393 10
    endloop
  endfacet
  facet normal 0 0 1
    outer loop
      vertex -0.765367 0.152241 10
      vertex -4.90393 0.975452 10
      vertex -0.390181 0.038429 10
    endloop
  endfacet
  facet normal 0 0 1
    outer loop
      vertex -1.41421 0.585786 10
      vertex -1.66294 0.88886 10
      vertex -4.90393 0.975452 10
    endloop
  endfacet
  facet normal 0 0 1
    outer loop
      vertex -1.66294 0.88886 10
      vertex -1.84776 1.23463 10
      vertex -4.90393 0.975452 10
    endloop
  endfacet
  facet normal 0 0 1
    outer loop
      vertex -1.96157 1.60982 10
      vertex -4.90393 0.975452 10
      vertex -1.84776 1.23463 10
    endloop
  endfacet
  facet normal 0 0 1
    outer loop
      vertex -1.66294 3.11114 10
      vertex -1.41421 3.41421 10
      vertex -4.90393 0.975452 10
    endloop
  endfacet
  facet normal 0 0 1
    outer loop
      vertex -0.765367 3.84776 10
      vertex -0.390181 3.96157 10
      vertex 0.975452 4.90393 10
    endloop
  endfacet
  facet normal 0 0 1
    outer loop
      vertex 1.84776 1.23463 10
      vertex 20.7071 0.707107 10
      vertex 20.5556 0.83147 10
    endloop
  endfacet
  facet normal 0 0 1
    outer loop
      vertex 1.84776 1.23463 10
      vertex 1.66294 0.88886 10
      vertex 20.7071 0.707107 10
    endloop
  endfacet
  facet normal 0 0 1
    outer loop
      vertex 1.66294 0.88886 10
      vertex 21 0 10
      vertex 20.9808 0.19509 10
    endloop
  endfacet
  facet normal 0 0 1
    outer loop
      vertex 1.66294 0.88886 10
      vertex 20.9808 -0.19509 10
      vertex 21 0 10
    endloop
  endfacet
  facet normal 0 0 1
    outer loop
      vertex 1.66294 0.88886 10
      vertex 20.9239 -0.382683 10
      vertex 20.9808 -0.19509 10
    endloop
  endfacet
  facet normal 0 0 1
    outer loop
      vertex 1.66294 0.88886 10
      vertex 20.8315 -0.55557 10
      vertex 20.9239 -0.382683 10
    endloop
  endfacet
  facet normal 0 0 1
    outer loop
      vertex 1.66294 0.88886 10
      vertex 1.41421 0.585786 10
      vertex 20.8315 -0.55557 10
    endloop
  endfacet
  facet normal -0.95694 -0.290284 0
    outer loop
      vertex -4.90393 -0.975452 0
      vertex -4.6194 -1.91342 0
      vertex -4.90393 -0.975452 10
    endloop
  endfacet
  facet normal -0.95694 -0.290284 0
    outer loop
      vertex -4.90393 -0.975452 10
      vertex -4.6194 -1.91342 0
      vertex -4.6194 -1.91342 10
    endloop
  endfacet
  facet normal -0.881921 -0.471397 0
    outer loop
      vertex -4.6194 -1.91342 0
      vertex -4.15735 -2.77785 0
      vertex -4.6194 -1.91342 10
    endloop
  endfacet
  facet normal -0.881921 -0.471397 0
    outer loop
      vertex -4.6194 -1.91342 10
      vertex -4.15735 -2.77785 0
      vertex -4.15735 -2.77785 10
    endloop
  endfacet
  facet normal -0.773011 -0.634393 0
    outer loop
      vertex -4.15735 -2.77785 0
      vertex -3.53553 -3.53553 0
      vertex -4.15735 -2.77785 10
    endloop
  endfacet
  facet normal -0.773011 -0.634393 0
    outer loop
      vertex -4.15735 -2.77785 10
      vertex -3.53553 -3.53553 0
      vertex -3.53553 -3.53553 10
    endloop
  endfacet
  facet normal -0.634393 -0.773011 0
    outer loop
      vertex -3.53553 -3.53553 10
      vertex -3.53553 -3.53553 0
      vertex -2.77785 -4.15735 0
    endloop
  endfacet
  facet normal -0.634393 -0.773011 0
    outer loop
      vertex -2.77785 -4.15735 10
      vertex -3.53553 -3.53553 10
      vertex -2.77785 -4.15735 0
    endloop
  endfacet
  facet normal -0.471397 -0.881921 0
    outer loop
      vertex -2.77785 -4.15735 10
      vertex -2.77785 -4.15735 0
      vertex -1.91342 -4.6194 0
    endloop
  endfacet
  facet normal -0.471397 -0.881921 0
    outer loop
      vertex -1.91342 -4.6194 10
      vertex -2.77785 -4.15735 10
      vertex -1.91342 -4.6194 0
    endloop
  endfacet
  facet normal -0.290284 -0.95694 0
    outer loop
      vertex -1.91342 -4.6194 10
      vertex -1.91342 -4.6194 0
      vertex -0.975452 -4.90393 0
    endloop
  endfacet
  facet normal -0.290284 -0.95694 0
    outer loop
      vertex -0.975452 -4.90393 10
      vertex -1.91342 -4.6194 10
      vertex -0.975452 -4.90393 0
    endloop
  endfacet
  facet normal -0.0980175 -0.995185 0
    outer loop
      vertex -0.975452 -4.90393 10
      vertex -0.975452 -4.90393 0
      vertex 0 -5 0
    endloop
  endfacet
  facet normal -0.0980175 -0.995185 0
    outer loop
      vertex 0 -5 10
      vertex -0.975452 -4.90393 10
      vertex 0 -5 0
    endloop
  endfacet
  facet normal 0.0980175 -0.995185 0
    outer loop
      vertex 0 -5 10
      vertex 0 -5 0
      vertex 0.975452 -4.90393 0
    endloop
  endfacet
  facet normal 0.0980175 -0.995185 0
    outer loop
      vertex 0.975452 -4.90393 10
      vertex 0 -5 10
      vertex 0.975452 -4.90393 0
    endloop
  endfacet
  facet normal 0.199997 -0.979796 0
    outer loop
      vertex 0.975452 -4.90393 10
      vertex 0.975452 -4.90393 0
      vertex 20.1951 -0.980785 0
    endloop
  endfacet
  facet normal 0.199997 -0.979796 0
    outer loop
      vertex 20.1951 -0.980785 10
      vertex 0.975452 -4.90393 10
      vertex 20.1951 -0.980785 0
    endloop
  endfacet
  facet normal 0.290281 -0.956941 0
    outer loop
      vertex 20.1951 -0.980785 10
      vertex 20.1951 -0.980785 0
      vertex 20.3827 -0.92388 0
    endloop
  endfacet
  facet normal 0.290281 -0.956941 0
    outer loop
      vertex 20.3827 -0.92388 10
      vertex 20.1951 -0.980785 10
      vertex 20.3827 -0.92388 0
    endloop
  endfacet
  facet normal 0.471397 -0.881921 0
    outer loop
      vertex 20.3827 -0.92388 10
      vertex 20.3827 -0.92388 0
      vertex 20.5556 -0.83147 0
    endloop
  endfacet
  facet normal 0.471397 -0.881921 0
    outer loop
      vertex 20.5556 -0.83147 10
      vertex 20.3827 -0.92388 10
      vertex 20.5556 -0.83147 0
    endloop
  endfacet
  facet normal 0.634393 -0.773011 0
    outer loop
      vertex 20.5556 -0.83147 10
      vertex 20.5556 -0.83147 0
      vertex 20.7071 -0.707107 0
    endloop
  endfacet
  facet normal 0.634393 -0.773011 0
    outer loop
      vertex 20.7071 -0.707107 10
      vertex 20.5556 -0.83147 10
      vertex 20.7071 -0.707107 0
    endloop
  endfacet
  facet normal 0.773011 -0.634393 0
    outer loop
      vertex 20.7071 -0.707107 10
      vertex 20.7071 -0.707107 0
      vertex 20.8315 -0.55557 0
    endloop
  endfacet
  facet normal 0.773011 -0.634393 0
    outer loop
      vertex 20.8315 -0.55557 10
      vertex 20.7071 -0.707107 10
      vertex 20.8315 -0.55557 0
    endloop
  endfacet
  facet normal 0.881921 -0.471397 0
    outer loop
      vertex 20.8315 -0.55557 10
      vertex 20.8315 -0.55557 0
      vertex 20.9239 -0.382683 0
    endloop
  endfacet
  facet normal 0.881921 -0.471397 0
    outer loop
      vertex 20.9239 -0.382683 10
      vertex 20.8315 -0.55557 10
      vertex 20.9239 -0.382683 0
    endloop
  endfacet
  facet normal 0.956941 -0.290281 0
    outer loop
      vertex 20.9239 -0.382683 10
      vertex 20.9239 -0.382683 0
      vertex 20.9808 -0.19509 0
    endloop
  endfacet
  facet normal 0.956941 -0.290281 0
    outer loop
      vertex 20.9808 -0.19509 10
      vertex 20.9239 -0.382683 10
      vertex 20.9808 -0.19509 0
    endloop
  endfacet
  facet normal 0.995185 -0.0980187 0
    outer loop
      vertex 20.9808 -0.19509 10
      vertex 20.9808 -0.19509 0
      vertex 21 0 0
    endloop
  endfacet
  facet normal 0.995185 -0.0980187 0
    outer loop
      vertex 21 0 10
      vertex 20.9808 -0.19509 10
      vertex 21 0 0
    endloop
  endfacet
  facet normal 0.995185 0.0980187 0
    outer loop
      vertex 21 0 0
      vertex 20.9808 0.19509 0
      vertex 20.9808 0.19509 10
    endloop
  endfacet
  facet normal 0.995185 0.0980187 0
    outer loop
      vertex 21 0 10
      vertex 21 0 0
      vertex 20.9808 0.19509 10
    endloop
  endfacet
  facet normal 0.956941 0.290281 0
    outer loop
      vertex 20.9808 0.19509 0
      vertex 20.9239 0.382683 0
      vertex 20.9239 0.382683 10
    endloop
  endfacet
  facet normal 0.956941 0.290281 0
    outer loop
      vertex 20.9808 0.19509 10
      vertex 20.9808 0.19509 0
      vertex 20.9239 0.382683 10
    endloop
  endfacet
  facet normal 0.881921 0.471397 0
    outer loop
      vertex 20.9239 0.382683 0
      vertex 20.8315 0.55557 0
      vertex 20.8315 0.55557 10
    endloop
  endfacet
  facet normal 0.881921 0.471397 0
    outer loop
      vertex 20.9239 0.382683 10
      vertex 20.9239 0.382683 0
      vertex 20.8315 0.55557 10
    endloop
  endfacet
  facet normal 0.773011 0.634393 0
    outer loop
      vertex 20.8315 0.55557 0
      vertex 20.7071 0.707107 0
      vertex 20.7071 0.707107 10
    endloop
  endfacet
  facet normal 0.773011 0.634393 0
    outer loop
      vertex 20.8315 0.55557 10
      vertex 20.8315 0.55557 0
      vertex 20.7071 0.707107 10
    endloop
  endfacet
  facet normal 0.634393 0.773011 0
    outer loop
      vertex 20.5556 0.83147 0
      vertex 20.5556 0.83147 10
      vertex 20.7071 0.707107 0
    endloop
  endfacet
  facet normal 0.634393 0.773011 0
    outer loop
      vertex 20.7071 0.707107 0
      vertex 20.5556 0.83147 10
      vertex 20.7071 0.707107 10
    endloop
  endfacet
  facet normal 0.471397 0.881921 0
    outer loop
      vertex 20.3827 0.92388 0
      vertex 20.3827 0.92388 10
      vertex 20.5556 0.83147 0
    endloop
  endfacet
  facet normal 0.471397 0.881921 0
    outer loop
      vertex 20.5556 0.83147 0
      vertex 20.3827 0.92388 10
      vertex 20.5556 0.83147 10
    endloop
  endfacet
  facet normal 0.290281 0.956941 0
    outer loop
      vertex 20.1951 0.980785 0
      vertex 20.1951 0.980785 10
      vertex 20.3827 0.92388 0
    endloop
  endfacet
  facet normal 0.290281 0.956941 0
    outer loop
      vertex 20.3827 0.92388 0
      vertex 20.1951 0.980785 10
      vertex 20.3827 0.92388 10
    endloop
  endfacet
  facet normal 0.199997 0.979796 0
    outer loop
      vertex 0.975452 4.90393 0
      vertex 0.975452 4.90393 10
      vertex 20.1951 0.980785 0
    endloop
  endfacet
  facet normal 0.199997 0.979796 0
    outer loop
      vertex 20.1951 0.980785 0
      vertex 0.975452 4.90393 10
      vertex 20.1951 0.980785 10
    endloop
  endfacet
  facet normal 0.0980175 0.995185 0
    outer loop
      vertex 0 5 0
      vertex 0 5 10
      vertex 0.975452 4.90393 0
    endloop
  endfacet
  facet normal 0.0980175 0.995185 0
    outer loop
      vertex 0.975452 4.90393 0
      vertex 0 5 10
      vertex 0.975452 4.90393 10
    endloop
  endfacet
  facet normal -0.0980175 0.995185 0
    outer loop
      vertex -0.975452 4.90393 0
      vertex -0.975452 4.90393 10
      vertex 0 5 0
    endloop
  endfacet
  facet normal -0.0980175 0.995185 0
    outer loop
      vertex 0 5 0
      vertex -0.975452 4.90393 10
      vertex 0 5 10
    endloop
  endfacet
  facet normal -0.290284 0.95694 0
    outer loop
      vertex -1.91342 4.6194 0
      vertex -1.91342 4.6194 10
      vertex -0.975452 4.90393 0
    endloop
  endfacet
  facet normal -0.290284 0.95694 0
    outer loop
      vertex -0.975452 4.90393 0
      vertex -1.91342 4.6194 10
      vertex -0.975452 4.90393 10
    endloop
  endfacet
  facet normal -0.471397 0.881921 0
    outer loop
      vertex -2.77785 4.15735 0
      vertex -2.77785 4.15735 10
      vertex -1.91342 4.6194 0
    endloop
  endfacet
  facet normal -0.471397 0.881921 0
    outer loop
      vertex -1.91342 4.6194 0
      vertex -2.77785 4.15735 10
      vertex -1.91342 4.6194 10
    endloop
  endfacet
  facet normal -0.634393 0.773011 0
    outer loop
      vertex -3.53553 3.53553 0
      vertex -3.53553 3.53553 10
      vertex -2.77785 4.15735 0
    endloop
  endfacet
  facet normal -0.634393 0.773011 0
    outer loop
      vertex -2.77785 4.15735 0
      vertex -3.53553 3.53553 10
      vertex -2.77785 4.15735 10
    endloop
  endfacet
  facet normal -0.773011 0.634393 0
    outer loop
      vertex -4.15735 2.77785 0
      vertex -4.15735 2.77785 10
      vertex -3.53553 3.53553 0
    endloop
  endfacet
  facet normal -0.773011 0.634393 0
    outer loop
      vertex -3.53553 3.53553 0
      vertex -4.15735 2.77785 10
      vertex -3.53553 3.53553 10
    endloop
  endfacet
  facet normal -0.881921 0.471397 0
    outer loop
      vertex -4.6194 1.91342 0
      vertex -4.6194 1.91342 10
      vertex -4.15735 2.77785 0
    endloop
  endfacet
  facet normal -0.881921 0.471397 0
    outer loop
      vertex -4.15735 2.77785 0
      vertex -4.6194 1.91342 10
      vertex -4.15735 2.77785 10
    endloop
  endfacet
  facet normal -0.95694 0.290284 0
    outer loop
      vertex -4.90393 0.975452 0
      vertex -4.90393 0.975452 10
      vertex -4.6194 1.91342 0
    endloop
  endfacet
  facet normal -0.95694 0.290284 0
    outer loop
      vertex -4.6194 1.91342 0
      vertex -4.90393 0.975452 10
      vertex -4.6194 1.91342 10
    endloop
  endfacet
  facet normal 0.995185 -0.0980159 0
    outer loop
      vertex -1.96157 2.39018 0
      vertex -1.96157 2.39018 10
      vertex -2 2 10
    endloop
  endfacet
  facet normal 0.995185 -0.0980159 0
    outer loop
      vertex -2 2 0
      vertex -1.96157 2.39018 0
      vertex -2 2 10
    endloop
  endfacet
  facet normal 0.995185 0.0980159 0
    outer loop
      vertex -2 2 10
      vertex -1.96157 1.60982 10
      vertex -1.96157 1.60982 0
    endloop
  endfacet
  facet normal 0.995185 0.0980159 0
    outer loop
      vertex -2 2 0
      vertex -2 2 10
      vertex -1.96157 1.60982 0
    endloop
  endfacet
  facet normal 0.95694 -0.290286 0
    outer loop
      vertex -1.84776 2.76537 0
      vertex -1.84776 2.76537 10
      vertex -1.96157 2.39018 10
    endloop
  endfacet
  facet normal 0.95694 -0.290286 0
    outer loop
      vertex -1.96157 2.39018 0
      vertex -1.84776 2.76537 0
      vertex -1.96157 2.39018 10
    endloop
  endfacet
  facet normal 0.881921 -0.471398 0
    outer loop
      vertex -1.66294 3.11114 0
      vertex -1.66294 3.11114 10
      vertex -1.84776 2.76537 10
    endloop
  endfacet
  facet normal 0.881921 -0.471398 0
    outer loop
      vertex -1.84776 2.76537 0
      vertex -1.66294 3.11114 0
      vertex -1.84776 2.76537 10
    endloop
  endfacet
  facet normal 0.773012 -0.634391 0
    outer loop
      vertex -1.41421 3.41421 0
      vertex -1.41421 3.41421 10
      vertex -1.66294 3.11114 10
    endloop
  endfacet
  facet normal 0.773012 -0.634391 0
    outer loop
      vertex -1.66294 3.11114 0
      vertex -1.41421 3.41421 0
      vertex -1.66294 3.11114 10
    endloop
  endfacet
  facet normal 0.634391 -0.773012 0
    outer loop
      vertex -1.11114 3.66294 0
      vertex -1.11114 3.66294 10
      vertex -1.41421 3.41421 10
    endloop
  endfacet
  facet normal 0.634391 -0.773012 0
    outer loop
      vertex -1.41421 3.41421 0
      vertex -1.11114 3.66294 0
      vertex -1.41421 3.41421 10
    endloop
  endfacet
  facet normal 0.471398 -0.881921 0
    outer loop
      vertex -0.765367 3.84776 0
      vertex -0.765367 3.84776 10
      vertex -1.11114 3.66294 10
    endloop
  endfacet
  facet normal 0.471398 -0.881921 0
    outer loop
      vertex -1.11114 3.66294 0
      vertex -0.765367 3.84776 0
      vertex -1.11114 3.66294 10
    endloop
  endfacet
  facet normal 0.290286 -0.95694 0
    outer loop
      vertex -0.390181 3.96157 0
      vertex -0.390181 3.96157 10
      vertex -0.765367 3.84776 10
    endloop
  endfacet
  facet normal 0.290286 -0.95694 0
    outer loop
      vertex -0.765367 3.84776 0
      vertex -0.390181 3.96157 0
      vertex -0.765367 3.84776 10
    endloop
  endfacet
  facet normal 0.0980159 -0.995185 0
    outer loop
      vertex 0 4 0
      vertex 0 4 10
      vertex -0.390181 3.96157 10
    endloop
  endfacet
  facet normal 0.0980159 -0.995185 0
    outer loop
      vertex -0.390181 3.96157 0
      vertex 0 4 0
      vertex -0.390181 3.96157 10
    endloop
  endfacet
  facet normal -0.0980159 -0.995185 0
    outer loop
      vertex 0.390181 3.96157 0
      vertex 0.390181 3.96157 10
      vertex 0 4 10
    endloop
  endfacet
  facet normal -0.0980159 -0.995185 0
    outer loop
      vertex 0 4 0
      vertex 0.390181 3.96157 0
      vertex 0 4 10
    endloop
  endfacet
  facet normal -0.290286 -0.95694 0
    outer loop
      vertex 0.765367 3.84776 0
      vertex 0.765367 3.84776 10
      vertex 0.390181 3.96157 10
    endloop
  endfacet
  facet normal -0.290286 -0.95694 0
    outer loop
      vertex 0.390181 3.96157 0
      vertex 0.765367 3.84776 0
      vertex 0.390181 3.96157 10
    endloop
  endfacet
  facet normal -0.471398 -0.881921 0
    outer loop
      vertex 1.11114 3.66294 0
      vertex 1.11114 3.66294 10
      vertex 0.765367 3.84776 10
    endloop
  endfacet
  facet normal -0.471398 -0.881921 0
    outer loop
      vertex 0.765367 3.84776 0
      vertex 1.11114 3.66294 0
      vertex 0.765367 3.84776 10
    endloop
  endfacet
  facet normal -0.634391 -0.773012 0
    outer loop
      vertex 1.41421 3.41421 0
      vertex 1.41421 3.41421 10
      vertex 1.11114 3.66294 10
    endloop
  endfacet
  facet normal -0.634391 -0.773012 0
    outer loop
      vertex 1.11114 3.66294 0
      vertex 1.41421 3.41421 0
      vertex 1.11114 3.66294 10
    endloop
  endfacet
  facet normal -0.773012 -0.634391 0
    outer loop
      vertex 1.66294 3.11114 10
      vertex 1.41421 3.41421 10
      vertex 1.66294 3.11114 0
    endloop
  endfacet
  facet normal -0.773012 -0.634391 0
    outer loop
      vertex 1.66294 3.11114 0
      vertex 1.41421 3.41421 10
      vertex 1.41421 3.41421 0
    endloop
  endfacet
  facet normal -0.881921 -0.471398 0
    outer loop
      vertex 1.84776 2.76537 10
      vertex 1.66294 3.11114 10
      vertex 1.84776 2.76537 0
    endloop
  endfacet
  facet normal -0.881921 -0.471398 0
    outer loop
      vertex 1.84776 2.76537 0
      vertex 1.66294 3.11114 10
      vertex 1.66294 3.11114 0
    endloop
  endfacet
  facet normal -0.95694 -0.290286 0
    outer loop
      vertex 1.96157 2.39018 10
      vertex 1.84776 2.76537 10
      vertex 1.96157 2.39018 0
    endloop
  endfacet
  facet normal -0.95694 -0.290286 0
    outer loop
      vertex 1.96157 2.39018 0
      vertex 1.84776 2.76537 10
      vertex 1.84776 2.76537 0
    endloop
  endfacet
  facet normal -0.995185 -0.0980159 0
    outer loop
      vertex 2 2 10
      vertex 1.96157 2.39018 10
      vertex 2 2 0
    endloop
  endfacet
  facet normal -0.995185 -0.0980159 0
    outer loop
      vertex 2 2 0
      vertex 1.96157 2.39018 10
      vertex 1.96157 2.39018 0
    endloop
  endfacet
  facet normal -0.995185 0.0980159 0
    outer loop
      vertex 2 2 10
      vertex 2 2 0
      vertex 1.96157 1.60982 10
    endloop
  endfacet
  facet normal -0.995185 0.0980159 0
    outer loop
      vertex 1.96157 1.60982 10
      vertex 2 2 0
      vertex 1.96157 1.60982 0
    endloop
  endfacet
  facet normal -0.95694 0.290286 0
    outer loop
      vertex 1.96157 1.60982 10
      vertex 1.96157 1.60982 0
      vertex 1.84776 1.23463 10
    endloop
  endfacet
  facet normal -0.95694 0.290286 0
    outer loop
      vertex 1.84776 1.23463 10
      vertex 1.96157 1.60982 0
      vertex 1.84776 1.23463 0
    endloop
  endfacet
  facet normal -0.881921 0.471398 0
    outer loop
      vertex 1.84776 1.23463 10
      vertex 1.84776 1.23463 0
      vertex 1.66294 0.88886 10
    endloop
  endfacet
  facet normal -0.881921 0.471398 0
    outer loop
      vertex 1.66294 0.88886 10
      vertex 1.84776 1.23463 0
      vertex 1.66294 0.88886 0
    endloop
  endfacet
  facet normal -0.773012 0.634391 0
    outer loop
      vertex 1.66294 0.88886 10
      vertex 1.66294 0.88886 0
      vertex 1.41421 0.585786 10
    endloop
  endfacet
  facet normal -0.773012 0.634391 0
    outer loop
      vertex 1.41421 0.585786 10
      vertex 1.66294 0.88886 0
      vertex 1.41421 0.585786 0
    endloop
  endfacet
  facet normal -0.634391 0.773012 0
    outer loop
      vertex 1.41421 0.585786 10
      vertex 1.41421 0.585786 0
      vertex 1.11114 0.337061 10
    endloop
  endfacet
  facet normal -0.634391 0.773012 0
    outer loop
      vertex 1.11114 0.337061 10
      vertex 1.41421 0.585786 0
      vertex 1.11114 0.337061 0
    endloop
  endfacet
  facet normal -0.471398 0.881921 0
    outer loop
      vertex 1.11114 0.337061 10
      vertex 1.11114 0.337061 0
      vertex 0.765367 0.152241 10
    endloop
  endfacet
  facet normal -0.471398 0.881921 0
    outer loop
      vertex 0.765367 0.152241 10
      vertex 1.11114 0.337061 0
      vertex 0.765367 0.152241 0
    endloop
  endfacet
  facet normal -0.290286 0.95694 0
    outer loop
      vertex 0.765367 0.152241 10
      vertex 0.765367 0.152241 0
      vertex 0.390181 0.038429 10
    endloop
  endfacet
  facet normal -0.290286 0.95694 0
    outer loop
      vertex 0.390181 0.038429 10
      vertex 0.765367 0.152241 0
      vertex 0.390181 0.038429 0
    endloop
  endfacet
  facet normal -0.0980159 0.995185 0
    outer loop
      vertex 0.390181 0.038429 10
      vertex 0.390181 0.038429 0
      vertex 0 0 10
    endloop
  endfacet
  facet normal -0.0980159 0.995185 0
    outer loop
      vertex 0 0 10
      vertex 0.390181 0.038429 0
      vertex 0 0 0
    endloop
  endfacet
  facet normal 0.0980159 0.995185 0
    outer loop
      vertex 0 0 10
      vertex 0 0 0
      vertex -0.390181 0.038429 10
    endloop
  endfacet
  facet normal 0.0980159 0.995185 0
    outer loop
      vertex -0.390181 0.038429 10
      vertex 0 0 0
      vertex -0.390181 0.038429 0
    endloop
  endfacet
  facet normal 0.290286 0.95694 0
    outer loop
      vertex -0.390181 0.038429 10
      vertex -0.390181 0.038429 0
      vertex -0.765367 0.152241 10
    endloop
  endfacet
  facet normal 0.290286 0.95694 0
    outer loop
      vertex -0.765367 0.152241 10
      vertex -0.390181 0.038429 0
      vertex -0.765367 0.152241 0
    endloop
  endfacet
  facet normal 0.471398 0.881921 0
    outer loop
      vertex -0.765367 0.152241 10
      vertex -0.765367 0.152241 0
      vertex -1.11114 0.337061 10
    endloop
  endfacet
  facet normal 0.471398 0.881921 0
    outer loop
      vertex -1.11114 0.337061 10
      vertex -0.765367 0.152241 0
      vertex -1.11114 0.337061 0
    endloop
  endfacet
  facet normal 0.634391 0.773012 0
    outer loop
      vertex -1.11114 0.337061 10
      vertex -1.11114 0.337061 0
      vertex -1.41421 0.585786 10
    endloop
  endfacet
  facet normal 0.634391 0.773012 0
    outer loop
      vertex -1.41421 0.585786 10
      vertex -1.11114 0.337061 0
      vertex -1.41421 0.585786 0
    endloop
  endfacet
  facet normal 0.773012 0.634391 0
    outer loop
      vertex -1.66294 0.88886 10
      vertex -1.41421 0.585786 10
      vertex -1.41421 0.585786 0
    endloop
  endfacet
  facet normal 0.773012 0.634391 0
    outer loop
      vertex -1.66294 0.88886 0
      vertex -1.66294 0.88886 10
      vertex -1.41421 0.585786 0
    endloop
  endfacet
  facet normal 0.881921 0.471398 0
    outer loop
      vertex -1.84776 1.23463 10
      vertex -1.66294 0.88886 10
      vertex -1.66294 0.88886 0
    endloop
  endfacet
  facet normal 0.881921 0.471398 0
    outer loop
      vertex -1.84776 1.23463 0
      vertex -1.84776 1.23463 10
      vertex -1.66294 0.88886 0
    endloop
  endfacet
  facet normal 0.95694 0.290286 0
    outer loop
      vertex -1.96157 1.60982 10
      vertex -1.84776 1.23463 10
      vertex -1.84776 1.23463 0
    endloop
  endfacet
  facet normal 0.95694 0.290286 0
    outer loop
      vertex -1.96157 1.60982 0
      vertex -1.96157 1.60982 10
      vertex -1.84776 1.23463 0
    endloop
  endfacet
endsolid OpenSCAD_Model
