solid OpenSCAD_Model
  facet normal 0.998752 0 0.0499376
    outer loop
      vertex 11.25 -16.875 25
      vertex 12.5 -18.75 0
      vertex 12.5 18.75 0
    endloop
  endfacet
  facet normal 0.998752 0 0.0499376
    outer loop
      vertex 11.25 16.875 25
      vertex 11.25 -16.875 25
      vertex 12.5 18.75 0
    endloop
  endfacet
  facet normal 0 0 -1
    outer loop
      vertex -12.5 18.75 0
      vertex 12.5 18.75 0
      vertex -12.5 -18.75 0
    endloop
  endfacet
  facet normal 0 0 -1
    outer loop
      vertex -12.5 -18.75 0
      vertex 12.5 18.75 0
      vertex 12.5 -18.75 0
    endloop
  endfacet
  facet normal 0 -0.997199 0.0747899
    outer loop
      vertex -12.5 -18.75 0
      vertex 12.5 -18.75 0
      vertex 11.25 -16.875 25
    endloop
  endfacet
  facet normal 0 -0.997199 0.0747899
    outer loop
      vertex -11.25 -16.875 25
      vertex -12.5 -18.75 0
      vertex 11.25 -16.875 25
    endloop
  endfacet
  facet normal 0 0 1
    outer loop
      vertex -11.25 -16.875 25
      vertex 11.25 -16.875 25
      vertex 11.25 16.875 25
    endloop
  endfacet
  facet normal 0 0 1
    outer loop
      vertex -11.25 16.875 25
      vertex -11.25 -16.875 25
      vertex 11.25 16.875 25
    endloop
  endfacet
  facet normal 0 0.997199 0.0747899
    outer loop
      vertex -11.25 16.875 25
      vertex 11.25 16.875 25
      vertex -12.5 18.75 0
    endloop
  endfacet
  facet normal 0 0.997199 0.0747899
    outer loop
      vertex -12.5 18.75 0
      vertex 11.25 16.875 25
      vertex 12.5 18.75 0
    endloop
  endfacet
  facet normal -0.998752 0 0.0499376
    outer loop
      vertex -11.25 -16.875 25
      vertex -11.25 16.875 25
      vertex -12.5 -18.75 0
    endloop
  endfacet
  facet normal -0.998752 0 0.0499376
    outer loop
      vertex -12.5 -18.75 0
      vertex -11.25 16.875 25
      vertex -12.5 18.75 0
    endloop
  endfacet
endsolid OpenSCAD_Model
