solid OpenSCAD_Model
  facet normal -1 0 0
    outer loop
      vertex -112.5 -72.5 1.38778e-17
      vertex -112.5 -72.5 0.2
      vertex -112.5 72.5 1.38778e-17
    endloop
  endfacet
  facet normal -1 0 0
    outer loop
      vertex -112.5 72.5 1.38778e-17
      vertex -112.5 -72.5 0.2
      vertex -112.5 72.5 0.2
    endloop
  endfacet
  facet normal 0 -1 0
    outer loop
      vertex -112.5 -72.5 0.2
      vertex -112.5 -72.5 1.38778e-17
      vertex 112.5 -72.5 1.38778e-17
    endloop
  endfacet
  facet normal 0 -1 0
    outer loop
      vertex 112.5 -72.5 0.2
      vertex -112.5 -72.5 0.2
      vertex 112.5 -72.5 1.38778e-17
    endloop
  endfacet
  facet normal 0 0 -1
    outer loop
      vertex -0.5 71.5 1.38778e-17
      vertex -112.5 72.5 1.38778e-17
      vertex 112.5 72.5 1.38778e-17
    endloop
  endfacet
  facet normal 0 0 -1
    outer loop
      vertex -112.5 -72.5 1.38778e-17
      vertex -112.5 72.5 1.38778e-17
      vertex -111.5 -0.5 1.38778e-17
    endloop
  endfacet
  facet normal 0 0 -1
    outer loop
      vertex 0.5 -71.5 1.38778e-17
      vertex -0.5 -0.5 1.38778e-17
      vertex 0.5 -0.5 1.38778e-17
    endloop
  endfacet
  facet normal 0 0 -1
    outer loop
      vertex -112.5 -72.5 1.38778e-17
      vertex -111.5 -0.5 1.38778e-17
      vertex -111.5 -71.5 1.38778e-17
    endloop
  endfacet
  facet normal 0 0 -1
    outer loop
      vertex -112.5 -72.5 1.38778e-17
      vertex -111.5 -71.5 1.38778e-17
      vertex 112.5 -72.5 1.38778e-17
    endloop
  endfacet
  facet normal 0 0 -1
    outer loop
      vertex -111.5 -71.5 1.38778e-17
      vertex -0.5 -71.5 1.38778e-17
      vertex 112.5 -72.5 1.38778e-17
    endloop
  endfacet
  facet normal 0 0 -1
    outer loop
      vertex -0.5 0.5 1.38778e-17
      vertex -0.5 -0.5 1.38778e-17
      vertex -111.5 0.5 1.38778e-17
    endloop
  endfacet
  facet normal 0 0 -1
    outer loop
      vertex -111.5 71.5 1.38778e-17
      vertex -112.5 72.5 1.38778e-17
      vertex -0.5 71.5 1.38778e-17
    endloop
  endfacet
  facet normal 0 0 -1
    outer loop
      vertex -111.5 -0.5 1.38778e-17
      vertex -112.5 72.5 1.38778e-17
      vertex -111.5 0.5 1.38778e-17
    endloop
  endfacet
  facet normal 0 0 -1
    outer loop
      vertex 0.5 71.5 1.38778e-17
      vertex 112.5 72.5 1.38778e-17
      vertex 111.5 71.5 1.38778e-17
    endloop
  endfacet
  facet normal 0 0 -1
    outer loop
      vertex -112.5 72.5 1.38778e-17
      vertex -111.5 71.5 1.38778e-17
      vertex -111.5 0.5 1.38778e-17
    endloop
  endfacet
  facet normal 0 0 -1
    outer loop
      vertex -111.5 -0.5 1.38778e-17
      vertex -111.5 0.5 1.38778e-17
      vertex -0.5 -0.5 1.38778e-17
    endloop
  endfacet
  facet normal 0 0 -1
    outer loop
      vertex 0.5 71.5 1.38778e-17
      vertex -0.5 71.5 1.38778e-17
      vertex 112.5 72.5 1.38778e-17
    endloop
  endfacet
  facet normal 0 0 -1
    outer loop
      vertex -0.5 0.5 1.38778e-17
      vertex 0.5 -0.5 1.38778e-17
      vertex -0.5 -0.5 1.38778e-17
    endloop
  endfacet
  facet normal 0 0 -1
    outer loop
      vertex -0.5 -71.5 1.38778e-17
      vertex 0.5 -71.5 1.38778e-17
      vertex 112.5 -72.5 1.38778e-17
    endloop
  endfacet
  facet normal 0 0 -1
    outer loop
      vertex 112.5 -72.5 1.38778e-17
      vertex 111.5 -71.5 1.38778e-17
      vertex 112.5 72.5 1.38778e-17
    endloop
  endfacet
  facet normal 0 0 -1
    outer loop
      vertex 111.5 -71.5 1.38778e-17
      vertex 111.5 -0.5 1.38778e-17
      vertex 112.5 72.5 1.38778e-17
    endloop
  endfacet
  facet normal 0 0 -1
    outer loop
      vertex -0.5 0.5 1.38778e-17
      vertex -0.5 71.5 1.38778e-17
      vertex 0.5 71.5 1.38778e-17
    endloop
  endfacet
  facet normal 0 0 -1
    outer loop
      vertex 0.5 0.5 1.38778e-17
      vertex -0.5 0.5 1.38778e-17
      vertex 0.5 71.5 1.38778e-17
    endloop
  endfacet
  facet normal 0 0 -1
    outer loop
      vertex 111.5 -0.5 1.38778e-17
      vertex -0.5 0.5 1.38778e-17
      vertex 0.5 0.5 1.38778e-17
    endloop
  endfacet
  facet normal 0 0 -1
    outer loop
      vertex 111.5 -0.5 1.38778e-17
      vertex 0.5 0.5 1.38778e-17
      vertex 111.5 0.5 1.38778e-17
    endloop
  endfacet
  facet normal 0 0 -1
    outer loop
      vertex 111.5 -0.5 1.38778e-17
      vertex 111.5 0.5 1.38778e-17
      vertex 112.5 72.5 1.38778e-17
    endloop
  endfacet
  facet normal 0 0 -1
    outer loop
      vertex 111.5 0.5 1.38778e-17
      vertex 111.5 71.5 1.38778e-17
      vertex 112.5 72.5 1.38778e-17
    endloop
  endfacet
  facet normal 0 0 -1
    outer loop
      vertex 111.5 -71.5 1.38778e-17
      vertex 112.5 -72.5 1.38778e-17
      vertex 0.5 -71.5 1.38778e-17
    endloop
  endfacet
  facet normal 0 0 -1
    outer loop
      vertex -0.5 -0.5 1.38778e-17
      vertex 0.5 -71.5 1.38778e-17
      vertex -0.5 -71.5 1.38778e-17
    endloop
  endfacet
  facet normal 0 0 -1
    outer loop
      vertex 0.5 -0.5 1.38778e-17
      vertex -0.5 0.5 1.38778e-17
      vertex 111.5 -0.5 1.38778e-17
    endloop
  endfacet
  facet normal 0 1 0
    outer loop
      vertex -112.5 72.5 1.38778e-17
      vertex -112.5 72.5 0.2
      vertex 112.5 72.5 1.38778e-17
    endloop
  endfacet
  facet normal 0 1 0
    outer loop
      vertex 112.5 72.5 1.38778e-17
      vertex -112.5 72.5 0.2
      vertex 112.5 72.5 0.2
    endloop
  endfacet
  facet normal 0 0 1
    outer loop
      vertex -111.5 -71.5 0.2
      vertex -112.5 -72.5 0.2
      vertex 112.5 -72.5 0.2
    endloop
  endfacet
  facet normal 0 0 1
    outer loop
      vertex 0.5 -0.5 0.2
      vertex 111.5 -0.5 0.2
      vertex 0.5 0.5 0.2
    endloop
  endfacet
  facet normal 0 0 1
    outer loop
      vertex -0.5 -71.5 0.2
      vertex -111.5 -71.5 0.2
      vertex 112.5 -72.5 0.2
    endloop
  endfacet
  facet normal 0 0 1
    outer loop
      vertex -112.5 72.5 0.2
      vertex -112.5 -72.5 0.2
      vertex -111.5 -71.5 0.2
    endloop
  endfacet
  facet normal 0 0 1
    outer loop
      vertex 0.5 -0.5 0.2
      vertex 0.5 0.5 0.2
      vertex -0.5 0.5 0.2
    endloop
  endfacet
  facet normal 0 0 1
    outer loop
      vertex -112.5 72.5 0.2
      vertex -111.5 -71.5 0.2
      vertex -111.5 -0.5 0.2
    endloop
  endfacet
  facet normal 0 0 1
    outer loop
      vertex -111.5 0.5 0.2
      vertex -111.5 -0.5 0.2
      vertex -0.5 -0.5 0.2
    endloop
  endfacet
  facet normal 0 0 1
    outer loop
      vertex 0.5 -71.5 0.2
      vertex -0.5 -71.5 0.2
      vertex 112.5 -72.5 0.2
    endloop
  endfacet
  facet normal 0 0 1
    outer loop
      vertex -112.5 72.5 0.2
      vertex -111.5 -0.5 0.2
      vertex -111.5 0.5 0.2
    endloop
  endfacet
  facet normal 0 0 1
    outer loop
      vertex -111.5 71.5 0.2
      vertex -0.5 71.5 0.2
      vertex -112.5 72.5 0.2
    endloop
  endfacet
  facet normal 0 0 1
    outer loop
      vertex -112.5 72.5 0.2
      vertex -111.5 0.5 0.2
      vertex -111.5 71.5 0.2
    endloop
  endfacet
  facet normal 0 0 1
    outer loop
      vertex 0.5 0.5 0.2
      vertex 0.5 71.5 0.2
      vertex -0.5 71.5 0.2
    endloop
  endfacet
  facet normal 0 0 1
    outer loop
      vertex 112.5 72.5 0.2
      vertex -112.5 72.5 0.2
      vertex -0.5 71.5 0.2
    endloop
  endfacet
  facet normal 0 0 1
    outer loop
      vertex 0.5 -71.5 0.2
      vertex 0.5 -0.5 0.2
      vertex -0.5 -0.5 0.2
    endloop
  endfacet
  facet normal 0 0 1
    outer loop
      vertex 111.5 -71.5 0.2
      vertex 0.5 -71.5 0.2
      vertex 112.5 -72.5 0.2
    endloop
  endfacet
  facet normal 0 0 1
    outer loop
      vertex 112.5 72.5 0.2
      vertex 111.5 -0.5 0.2
      vertex 112.5 -72.5 0.2
    endloop
  endfacet
  facet normal 0 0 1
    outer loop
      vertex 111.5 0.5 0.2
      vertex 0.5 0.5 0.2
      vertex 111.5 -0.5 0.2
    endloop
  endfacet
  facet normal 0 0 1
    outer loop
      vertex -0.5 71.5 0.2
      vertex -0.5 0.5 0.2
      vertex 0.5 0.5 0.2
    endloop
  endfacet
  facet normal 0 0 1
    outer loop
      vertex 112.5 72.5 0.2
      vertex -0.5 71.5 0.2
      vertex 0.5 71.5 0.2
    endloop
  endfacet
  facet normal 0 0 1
    outer loop
      vertex 112.5 72.5 0.2
      vertex 0.5 71.5 0.2
      vertex 111.5 71.5 0.2
    endloop
  endfacet
  facet normal 0 0 1
    outer loop
      vertex 112.5 72.5 0.2
      vertex 111.5 0.5 0.2
      vertex 111.5 -0.5 0.2
    endloop
  endfacet
  facet normal 0 0 1
    outer loop
      vertex 112.5 72.5 0.2
      vertex 111.5 71.5 0.2
      vertex 111.5 0.5 0.2
    endloop
  endfacet
  facet normal 0 0 1
    outer loop
      vertex 111.5 -0.5 0.2
      vertex 111.5 -71.5 0.2
      vertex 112.5 -72.5 0.2
    endloop
  endfacet
  facet normal 0 0 1
    outer loop
      vertex -0.5 -0.5 0.2
      vertex -0.5 -71.5 0.2
      vertex 0.5 -71.5 0.2
    endloop
  endfacet
  facet normal 0 0 1
    outer loop
      vertex -0.5 0.5 0.2
      vertex -0.5 -0.5 0.2
      vertex 0.5 -0.5 0.2
    endloop
  endfacet
  facet normal 0 0 1
    outer loop
      vertex -0.5 0.5 0.2
      vertex -111.5 0.5 0.2
      vertex -0.5 -0.5 0.2
    endloop
  endfacet
  facet normal 1 0 0
    outer loop
      vertex 112.5 -72.5 0.2
      vertex 112.5 -72.5 1.38778e-17
      vertex 112.5 72.5 1.38778e-17
    endloop
  endfacet
  facet normal 1 0 0
    outer loop
      vertex 112.5 72.5 0.2
      vertex 112.5 -72.5 0.2
      vertex 112.5 72.5 1.38778e-17
    endloop
  endfacet
  facet normal 1 0 0
    outer loop
      vertex -111.5 -0.5 1.38778e-17
      vertex -111.5 -0.5 0.2
      vertex -111.5 -71.5 0.2
    endloop
  endfacet
  facet normal 1 0 0
    outer loop
      vertex -111.5 -71.5 1.38778e-17
      vertex -111.5 -0.5 1.38778e-17
      vertex -111.5 -71.5 0.2
    endloop
  endfacet
  facet normal 0 -1 0
    outer loop
      vertex -111.5 -0.5 0.2
      vertex -111.5 -0.5 1.38778e-17
      vertex -0.5 -0.5 1.38778e-17
    endloop
  endfacet
  facet normal 0 -1 0
    outer loop
      vertex -0.5 -0.5 0.2
      vertex -111.5 -0.5 0.2
      vertex -0.5 -0.5 1.38778e-17
    endloop
  endfacet
  facet normal -1 0 0
    outer loop
      vertex -0.5 -71.5 1.38778e-17
      vertex -0.5 -71.5 0.2
      vertex -0.5 -0.5 1.38778e-17
    endloop
  endfacet
  facet normal -1 0 0
    outer loop
      vertex -0.5 -0.5 1.38778e-17
      vertex -0.5 -71.5 0.2
      vertex -0.5 -0.5 0.2
    endloop
  endfacet
  facet normal 0 1 0
    outer loop
      vertex -0.5 -71.5 0.2
      vertex -0.5 -71.5 1.38778e-17
      vertex -111.5 -71.5 0.2
    endloop
  endfacet
  facet normal 0 1 0
    outer loop
      vertex -111.5 -71.5 0.2
      vertex -0.5 -71.5 1.38778e-17
      vertex -111.5 -71.5 1.38778e-17
    endloop
  endfacet
  facet normal 1 0 0
    outer loop
      vertex -111.5 71.5 1.38778e-17
      vertex -111.5 71.5 0.2
      vertex -111.5 0.5 0.2
    endloop
  endfacet
  facet normal 1 0 0
    outer loop
      vertex -111.5 0.5 1.38778e-17
      vertex -111.5 71.5 1.38778e-17
      vertex -111.5 0.5 0.2
    endloop
  endfacet
  facet normal 0 -1 0
    outer loop
      vertex -0.5 71.5 1.38778e-17
      vertex -0.5 71.5 0.2
      vertex -111.5 71.5 0.2
    endloop
  endfacet
  facet normal 0 -1 0
    outer loop
      vertex -111.5 71.5 1.38778e-17
      vertex -0.5 71.5 1.38778e-17
      vertex -111.5 71.5 0.2
    endloop
  endfacet
  facet normal -1 0 0
    outer loop
      vertex -0.5 0.5 1.38778e-17
      vertex -0.5 0.5 0.2
      vertex -0.5 71.5 1.38778e-17
    endloop
  endfacet
  facet normal -1 0 0
    outer loop
      vertex -0.5 71.5 1.38778e-17
      vertex -0.5 0.5 0.2
      vertex -0.5 71.5 0.2
    endloop
  endfacet
  facet normal 0 1 0
    outer loop
      vertex -111.5 0.5 1.38778e-17
      vertex -111.5 0.5 0.2
      vertex -0.5 0.5 1.38778e-17
    endloop
  endfacet
  facet normal 0 1 0
    outer loop
      vertex -0.5 0.5 1.38778e-17
      vertex -111.5 0.5 0.2
      vertex -0.5 0.5 0.2
    endloop
  endfacet
  facet normal 1 0 0
    outer loop
      vertex 0.5 -71.5 0.2
      vertex 0.5 -71.5 1.38778e-17
      vertex 0.5 -0.5 1.38778e-17
    endloop
  endfacet
  facet normal 1 0 0
    outer loop
      vertex 0.5 -0.5 0.2
      vertex 0.5 -71.5 0.2
      vertex 0.5 -0.5 1.38778e-17
    endloop
  endfacet
  facet normal 0 -1 0
    outer loop
      vertex 0.5 -0.5 0.2
      vertex 0.5 -0.5 1.38778e-17
      vertex 111.5 -0.5 1.38778e-17
    endloop
  endfacet
  facet normal 0 -1 0
    outer loop
      vertex 111.5 -0.5 0.2
      vertex 0.5 -0.5 0.2
      vertex 111.5 -0.5 1.38778e-17
    endloop
  endfacet
  facet normal -1 0 0
    outer loop
      vertex 111.5 -0.5 0.2
      vertex 111.5 -0.5 1.38778e-17
      vertex 111.5 -71.5 0.2
    endloop
  endfacet
  facet normal -1 0 0
    outer loop
      vertex 111.5 -71.5 0.2
      vertex 111.5 -0.5 1.38778e-17
      vertex 111.5 -71.5 1.38778e-17
    endloop
  endfacet
  facet normal 0 1 0
    outer loop
      vertex 111.5 -71.5 0.2
      vertex 111.5 -71.5 1.38778e-17
      vertex 0.5 -71.5 0.2
    endloop
  endfacet
  facet normal 0 1 0
    outer loop
      vertex 0.5 -71.5 0.2
      vertex 111.5 -71.5 1.38778e-17
      vertex 0.5 -71.5 1.38778e-17
    endloop
  endfacet
  facet normal 1 0 0
    outer loop
      vertex 0.5 0.5 0.2
      vertex 0.5 0.5 1.38778e-17
      vertex 0.5 71.5 1.38778e-17
    endloop
  endfacet
  facet normal 1 0 0
    outer loop
      vertex 0.5 71.5 0.2
      vertex 0.5 0.5 0.2
      vertex 0.5 71.5 1.38778e-17
    endloop
  endfacet
  facet normal 0 -1 0
    outer loop
      vertex 111.5 71.5 1.38778e-17
      vertex 111.5 71.5 0.2
      vertex 0.5 71.5 0.2
    endloop
  endfacet
  facet normal 0 -1 0
    outer loop
      vertex 0.5 71.5 1.38778e-17
      vertex 111.5 71.5 1.38778e-17
      vertex 0.5 71.5 0.2
    endloop
  endfacet
  facet normal -1 0 0
    outer loop
      vertex 111.5 71.5 0.2
      vertex 111.5 71.5 1.38778e-17
      vertex 111.5 0.5 0.2
    endloop
  endfacet
  facet normal -1 0 0
    outer loop
      vertex 111.5 0.5 0.2
      vertex 111.5 71.5 1.38778e-17
      vertex 111.5 0.5 1.38778e-17
    endloop
  endfacet
  facet normal 0 1 0
    outer loop
      vertex 0.5 0.5 1.38778e-17
      vertex 0.5 0.5 0.2
      vertex 111.5 0.5 1.38778e-17
    endloop
  endfacet
  facet normal 0 1 0
    outer loop
      vertex 111.5 0.5 1.38778e-17
      vertex 0.5 0.5 0.2
      vertex 111.5 0.5 0.2
    endloop
  endfacet
endsolid OpenSCAD_Model
